<svg xmlns="http://www.w3.org/2000/svg" xmlns:xlink="http://www.w3.org/1999/xlink" width="500" zoomAndPan="magnify" viewBox="0 0 375 374.999991" height="500" preserveAspectRatio="xMidYMid meet" version="1.0"><defs><g/></defs><path fill="#000000" d="M 320.363281 76.867188 C 317.714844 74.621094 314.261719 74.09375 311.054688 75.445312 L 292.558594 83.289062 C 280.761719 61.621094 264.023438 43.148438 243.933594 29.292969 C 216.421875 10.324219 182.714844 -0.0234375 146.90625 1.917969 C 118.292969 3.464844 91.867188 12.644531 69.507812 27.375 C 55.425781 36.660156 42.949219 48.203125 32.546875 61.488281 C 27.652344 67.734375 28.679688 76.789062 34.84375 81.792969 L 46.917969 91.597656 C 50.0625 94.152344 53.695312 95.214844 57.730469 94.765625 C 61.757812 94.3125 65.0625 92.472656 67.566406 89.292969 C 75.007812 79.835938 83.996094 71.550781 94.1875 64.835938 C 110.078125 54.367188 128.902344 47.832031 149.335938 46.722656 C 174.988281 45.335938 199.035156 52.675781 218.550781 66.128906 C 231.710938 75.210938 242.851562 87.046875 251.097656 100.855469 L 232.257812 108.851562 C 229.136719 110.164062 227.136719 112.886719 226.816406 116.257812 C 226.496094 119.621094 227.941406 122.671875 230.75 124.558594 L 291.609375 165.378906 C 294.113281 167.070312 297.039062 167.386719 299.855469 166.285156 C 302.671875 165.195312 304.617188 162.980469 305.332031 160.039062 L 323.28125 85.820312 C 324.105469 82.441406 323.019531 79.121094 320.363281 76.867188 Z M 291.75 185.878906 C 242.152344 176.527344 194.371094 209.167969 185.027344 258.765625 C 175.6875 308.367188 208.320312 356.148438 257.917969 365.492188 C 307.515625 374.832031 355.300781 342.199219 364.640625 292.601562 C 373.984375 243 341.351562 195.21875 291.75 185.878906 Z M 332.722656 252.183594 L 269.125 315.75 L 262.625 322.246094 C 260.582031 324.289062 257.269531 324.308594 255.203125 322.296875 L 248.609375 315.898438 L 215.96875 284.210938 C 213.65625 281.957031 213.597656 278.238281 215.851562 275.917969 L 228.042969 263.359375 C 230.296875 261.046875 234.011719 260.996094 236.324219 263.238281 L 258.640625 284.90625 L 312.058594 231.523438 C 314.335938 229.246094 318.058594 229.246094 320.339844 231.523438 L 332.722656 243.902344 C 335.003906 246.179688 335.003906 249.90625 332.722656 252.183594 Z M 159.351562 269.191406 C 140.828125 269.898438 122.910156 265.964844 106.96875 258.261719 C 92.574219 251.308594 79.75 241.3125 69.484375 228.925781 L 86.890625 218.148438 C 89.765625 216.363281 91.328125 213.371094 91.125 209.992188 C 90.925781 206.613281 89.03125 203.820312 85.972656 202.390625 L 19.582031 171.363281 C 16.851562 170.078125 13.914062 170.214844 11.292969 171.726562 C 8.675781 173.25 7.097656 175.71875 6.84375 178.738281 L 0.453125 254.832031 C 0.160156 258.296875 1.742188 261.421875 4.707031 263.238281 C 7.675781 265.046875 11.164062 265.046875 14.125 263.214844 L 31.203125 252.628906 C 46.175781 272.226562 65.550781 287.925781 87.519531 298.546875 C 111.222656 310.003906 137.925781 315.472656 165.351562 313.6875 C 161.914062 303.683594 159.746094 293.054688 159.207031 281.957031 C 159.003906 277.652344 159.082031 273.398438 159.351562 269.191406 Z M 159.351562 269.191406 " fill-opacity="1" fill-rule="nonzero"/><g fill="#000000" fill-opacity="1"><g transform="translate(8.562764, 134.030989)"><g><path d="M 14.5625 -34.765625 L 13.265625 -34.875 C 12.171875 -34.875 11.425781 -34.273438 11.03125 -33.078125 C 10.6875 -32.015625 10.515625 -30.179688 10.515625 -27.578125 L 10.515625 -14.265625 C 10.515625 -11.765625 10.691406 -9.96875 11.046875 -8.875 C 11.410156 -7.789062 11.921875 -6.800781 12.578125 -5.90625 C 13.234375 -5.007812 14 -4.242188 14.875 -3.609375 C 16.65625 -2.347656 18.664062 -1.71875 20.90625 -1.71875 C 23.144531 -1.71875 24.988281 -1.984375 26.4375 -2.515625 C 27.894531 -3.046875 29.054688 -3.84375 29.921875 -4.90625 C 31.515625 -6.84375 32.3125 -10.003906 32.3125 -14.390625 L 32.265625 -27.578125 C 32.265625 -30.210938 32.140625 -31.9375 31.890625 -32.75 C 31.640625 -33.570312 31.335938 -34.128906 30.984375 -34.421875 C 30.628906 -34.722656 30.175781 -34.875 29.625 -34.875 L 28.296875 -34.765625 C 27.648438 -34.765625 27.328125 -35.023438 27.328125 -35.546875 C 27.328125 -36.210938 27.820312 -36.546875 28.8125 -36.546875 C 29.800781 -36.546875 30.660156 -36.472656 31.390625 -36.328125 C 32.128906 -36.191406 32.90625 -36.125 33.71875 -36.125 L 38.171875 -36.546875 C 39.316406 -36.546875 39.890625 -36.210938 39.890625 -35.546875 C 39.890625 -35.023438 39.566406 -34.765625 38.921875 -34.765625 L 37.625 -34.875 C 36.53125 -34.875 35.804688 -34.273438 35.453125 -33.078125 C 35.140625 -32.035156 34.984375 -30.203125 34.984375 -27.578125 L 34.9375 -13.015625 C 34.9375 -9.015625 33.660156 -5.738281 31.109375 -3.1875 C 28.535156 -0.613281 25.113281 0.671875 20.84375 0.671875 C 16.1875 0.671875 12.507812 -0.613281 9.8125 -3.1875 C 7.0625 -5.84375 5.6875 -9.535156 5.6875 -14.265625 L 5.6875 -27.578125 C 5.6875 -30.179688 5.550781 -31.898438 5.28125 -32.734375 C 5.007812 -33.566406 4.691406 -34.128906 4.328125 -34.421875 C 3.972656 -34.722656 3.507812 -34.875 2.9375 -34.875 L 1.625 -34.765625 C 0.96875 -34.765625 0.640625 -35.023438 0.640625 -35.546875 C 0.640625 -36.210938 1.140625 -36.546875 2.140625 -36.546875 C 3.140625 -36.546875 4.113281 -36.472656 5.0625 -36.328125 C 6.019531 -36.191406 7.023438 -36.125 8.078125 -36.125 C 9.128906 -36.125 10.144531 -36.191406 11.125 -36.328125 C 12.101562 -36.472656 13.082031 -36.546875 14.0625 -36.546875 C 15.039062 -36.546875 15.53125 -36.210938 15.53125 -35.546875 C 15.53125 -35.023438 15.207031 -34.765625 14.5625 -34.765625 Z M 14.5625 -34.765625 "/></g></g></g><g fill="#000000" fill-opacity="1"><g transform="translate(49.159338, 134.030989)"><g><path d="M 3.578125 0.40625 C 2.410156 0.40625 1.828125 0.0703125 1.828125 -0.59375 C 1.828125 -1.113281 2.148438 -1.375 2.796875 -1.375 L 4.125 -1.234375 C 5.195312 -1.234375 5.925781 -1.835938 6.3125 -3.046875 C 6.613281 -4.066406 6.765625 -5.898438 6.765625 -8.546875 L 6.765625 -27.578125 C 6.765625 -30.210938 6.640625 -31.9375 6.390625 -32.75 C 6.140625 -33.570312 5.835938 -34.128906 5.484375 -34.421875 C 5.128906 -34.722656 4.675781 -34.875 4.125 -34.875 L 2.796875 -34.765625 C 2.148438 -34.765625 1.828125 -35.023438 1.828125 -35.546875 C 1.828125 -36.210938 2.320312 -36.546875 3.3125 -36.546875 C 4.300781 -36.546875 5.238281 -36.472656 6.125 -36.328125 C 7.019531 -36.191406 8.007812 -36.125 9.09375 -36.125 C 10.1875 -36.125 11.148438 -36.191406 11.984375 -36.328125 C 12.816406 -36.472656 13.546875 -36.546875 14.171875 -36.546875 C 18.023438 -36.546875 21.132812 -35.378906 23.5 -33.046875 C 25.65625 -30.910156 26.734375 -28.332031 26.734375 -25.3125 C 26.734375 -22.519531 25.65625 -20.09375 23.5 -18.03125 C 21.382812 -16.019531 18.960938 -15.015625 16.234375 -15.015625 C 14.128906 -15.015625 12.6875 -15.425781 11.90625 -16.25 C 11.675781 -16.5 11.5625 -16.769531 11.5625 -17.0625 C 11.5625 -17.363281 11.644531 -17.59375 11.8125 -17.75 C 11.988281 -17.90625 12.203125 -17.984375 12.453125 -17.984375 C 12.703125 -17.984375 13.050781 -17.8125 13.5 -17.46875 C 14.207031 -16.96875 15.082031 -16.71875 16.125 -16.71875 C 17.164062 -16.71875 18.046875 -16.914062 18.765625 -17.3125 C 19.492188 -17.71875 20.113281 -18.289062 20.625 -19.03125 C 21.664062 -20.5625 22.1875 -22.617188 22.1875 -25.203125 C 22.1875 -28.109375 21.375 -30.425781 19.75 -32.15625 C 18.1875 -33.820312 16.160156 -34.65625 13.671875 -34.65625 C 12.753906 -34.65625 12.078125 -34.53125 11.640625 -34.28125 C 11.210938 -34.03125 11 -33.601562 11 -33 L 11 -8.546875 C 11 -5.828125 11.117188 -4.078125 11.359375 -3.296875 C 11.597656 -2.515625 11.894531 -1.972656 12.25 -1.671875 C 12.601562 -1.378906 13.066406 -1.234375 13.640625 -1.234375 L 14.9375 -1.375 C 15.582031 -1.375 15.90625 -1.113281 15.90625 -0.59375 C 15.90625 0.0703125 15.328125 0.40625 14.171875 0.40625 C 13.578125 0.40625 12.953125 0.351562 12.296875 0.25 C 10.140625 -0.09375 8.289062 -0.15625 6.75 0.0625 C 5.21875 0.289062 4.160156 0.40625 3.578125 0.40625 Z M 3.578125 0.40625 "/></g></g></g><g fill="#000000" fill-opacity="1"><g transform="translate(78.056766, 134.030989)"><g><path d="M 3.578125 0.40625 C 2.410156 0.40625 1.828125 0.0703125 1.828125 -0.59375 C 1.828125 -1.113281 2.148438 -1.375 2.796875 -1.375 L 4.125 -1.234375 C 5.195312 -1.234375 5.925781 -1.835938 6.3125 -3.046875 C 6.613281 -4.066406 6.765625 -5.898438 6.765625 -8.546875 L 6.765625 -27.578125 C 6.765625 -30.210938 6.640625 -31.9375 6.390625 -32.75 C 6.140625 -33.570312 5.835938 -34.128906 5.484375 -34.421875 C 5.128906 -34.722656 4.675781 -34.875 4.125 -34.875 L 2.796875 -34.765625 C 2.148438 -34.765625 1.828125 -35.023438 1.828125 -35.546875 C 1.828125 -36.210938 2.320312 -36.546875 3.3125 -36.546875 C 4.300781 -36.546875 5.164062 -36.472656 5.90625 -36.328125 C 6.644531 -36.191406 7.375 -36.125 8.09375 -36.125 C 9.988281 -36.125 11.566406 -36.210938 12.828125 -36.390625 C 14.734375 -36.660156 16.921875 -36.796875 19.390625 -36.796875 C 21.859375 -36.796875 24.316406 -36.351562 26.765625 -35.46875 C 29.222656 -34.59375 31.332031 -33.34375 33.09375 -31.71875 C 36.851562 -28.289062 38.734375 -23.78125 38.734375 -18.1875 C 38.734375 -12.894531 36.890625 -8.484375 33.203125 -4.953125 C 29.398438 -1.285156 24.40625 0.546875 18.21875 0.546875 C 16.726562 0.546875 15.28125 0.476562 13.875 0.34375 C 11.269531 0.113281 9.382812 0 8.21875 0 Z M 11 -12.421875 C 11 -9.222656 11.078125 -6.25 11.234375 -3.5 C 13.628906 -2.257812 16.316406 -1.640625 19.296875 -1.640625 C 21.472656 -1.640625 23.726562 -2.15625 26.0625 -3.1875 C 29.769531 -4.800781 32.1875 -7.691406 33.3125 -11.859375 C 33.726562 -13.335938 33.9375 -15.25 33.9375 -17.59375 C 33.9375 -19.9375 33.535156 -22.207031 32.734375 -24.40625 C 31.929688 -26.601562 30.8125 -28.457031 29.375 -29.96875 C 26.445312 -33.082031 22.503906 -34.640625 17.546875 -34.640625 C 14.003906 -34.640625 11.972656 -34.171875 11.453125 -33.234375 C 11.179688 -32.734375 11.035156 -32.160156 11.015625 -31.515625 C 11.003906 -30.878906 11 -30.257812 11 -29.65625 Z M 11 -12.421875 "/></g></g></g><g fill="#000000" fill-opacity="1"><g transform="translate(119.488999, 134.030989)"><g><path d="M 6.015625 0 C 5.097656 0 4.238281 0.0664062 3.4375 0.203125 C 2.632812 0.335938 1.769531 0.40625 0.84375 0.40625 C -0.0820312 0.40625 -0.546875 0.101562 -0.546875 -0.5 C -0.546875 -1.101562 -0.117188 -1.40625 0.734375 -1.40625 C 1.609375 -1.40625 2.234375 -1.566406 2.609375 -1.890625 C 3.222656 -2.441406 3.828125 -3.347656 4.421875 -4.609375 C 5.015625 -5.867188 5.566406 -7.046875 6.078125 -8.140625 C 6.585938 -9.234375 7.175781 -10.507812 7.84375 -11.96875 C 8.507812 -13.4375 9.238281 -15.070312 10.03125 -16.875 C 10.832031 -18.6875 11.675781 -20.609375 12.5625 -22.640625 C 14.863281 -27.972656 16.378906 -31.5625 17.109375 -33.40625 C 17.847656 -35.25 18.257812 -36.269531 18.34375 -36.46875 C 18.425781 -36.664062 18.507812 -36.847656 18.59375 -37.015625 C 18.832031 -37.390625 19.03125 -37.578125 19.1875 -37.578125 C 19.351562 -37.578125 19.488281 -37.550781 19.59375 -37.5 C 19.695312 -37.457031 19.816406 -37.375 19.953125 -37.25 C 20.210938 -36.90625 20.476562 -36.394531 20.75 -35.71875 C 21.019531 -35.050781 21.382812 -34.140625 21.84375 -32.984375 C 22.300781 -31.835938 22.828125 -30.535156 23.421875 -29.078125 C 24.015625 -27.628906 24.644531 -26.066406 25.3125 -24.390625 C 25.976562 -22.722656 26.644531 -21.054688 27.3125 -19.390625 C 27.988281 -17.734375 28.644531 -16.117188 29.28125 -14.546875 C 29.925781 -12.984375 30.5 -11.578125 31 -10.328125 C 32.539062 -6.566406 33.523438 -4.316406 33.953125 -3.578125 C 34.390625 -2.847656 34.753906 -2.335938 35.046875 -2.046875 C 35.492188 -1.617188 36.15625 -1.40625 37.03125 -1.40625 C 37.914062 -1.40625 38.359375 -1.101562 38.359375 -0.5 C 38.359375 0.101562 37.789062 0.40625 36.65625 0.40625 C 36.175781 0.40625 35.757812 0.378906 35.40625 0.328125 C 35.050781 0.285156 34.695312 0.25 34.34375 0.21875 C 33.300781 0.0703125 32.375 0 31.5625 0 L 26.359375 0.40625 C 25.191406 0.40625 24.609375 0.0703125 24.609375 -0.59375 C 24.609375 -1.132812 24.929688 -1.40625 25.578125 -1.40625 L 27.203125 -1.21875 C 27.878906 -1.21875 28.328125 -1.363281 28.546875 -1.65625 C 28.765625 -1.957031 28.875 -2.332031 28.875 -2.78125 C 28.875 -3.625 28.515625 -4.9375 27.796875 -6.71875 L 25.546875 -12.3125 L 10.59375 -12.3125 C 10.164062 -11.238281 9.765625 -10.25 9.390625 -9.34375 C 9.023438 -8.445312 8.691406 -7.578125 8.390625 -6.734375 C 7.898438 -5.367188 7.65625 -4.296875 7.65625 -3.515625 C 7.65625 -2.734375 7.789062 -2.15625 8.0625 -1.78125 C 8.34375 -1.414062 8.875 -1.234375 9.65625 -1.234375 L 11.265625 -1.375 C 11.910156 -1.375 12.234375 -1.113281 12.234375 -0.59375 C 12.234375 0.0703125 11.648438 0.40625 10.484375 0.40625 Z M 24.640625 -14.609375 L 18.21875 -30.671875 C 16.976562 -27.523438 14.757812 -22.171875 11.5625 -14.609375 Z M 24.640625 -14.609375 "/></g></g></g><g fill="#000000" fill-opacity="1"><g transform="translate(157.578619, 134.030989)"><g><path d="M 11.046875 0.40625 C 9.878906 0.40625 9.296875 0.0703125 9.296875 -0.59375 C 9.296875 -1.113281 9.617188 -1.375 10.265625 -1.375 L 11.59375 -1.234375 C 12.664062 -1.234375 13.382812 -1.835938 13.75 -3.046875 C 14.070312 -4.066406 14.234375 -5.898438 14.234375 -8.546875 L 14.234375 -33.75 L 13.5 -33.75 C 10.351562 -33.75 7.847656 -33.425781 5.984375 -32.78125 C 4.691406 -32.3125 3.8125 -31.507812 3.34375 -30.375 C 3 -29.550781 2.640625 -29.140625 2.265625 -29.140625 C 1.742188 -29.140625 1.484375 -29.441406 1.484375 -30.046875 C 1.484375 -30.234375 1.519531 -30.441406 1.59375 -30.671875 C 1.675781 -30.910156 1.773438 -31.191406 1.890625 -31.515625 C 2.171875 -32.367188 2.335938 -33.265625 2.390625 -34.203125 C 2.453125 -35.140625 2.554688 -35.765625 2.703125 -36.078125 C 2.859375 -36.390625 3.070312 -36.546875 3.34375 -36.546875 C 3.613281 -36.546875 3.851562 -36.523438 4.0625 -36.484375 C 4.28125 -36.441406 4.597656 -36.390625 5.015625 -36.328125 C 6.085938 -36.191406 7.441406 -36.125 9.078125 -36.125 L 26.171875 -36.125 C 27.503906 -36.125 28.46875 -36.191406 29.0625 -36.328125 C 29.664062 -36.472656 30.101562 -36.546875 30.375 -36.546875 C 30.96875 -36.546875 31.265625 -36.269531 31.265625 -35.71875 C 31.265625 -35.425781 31.210938 -35.082031 31.109375 -34.6875 C 30.835938 -33.8125 30.660156 -33.050781 30.578125 -32.40625 C 30.492188 -31.769531 30.414062 -31.25 30.34375 -30.84375 C 30.28125 -30.445312 30.203125 -30.128906 30.109375 -29.890625 C 29.960938 -29.492188 29.742188 -29.296875 29.453125 -29.296875 C 29.171875 -29.296875 28.988281 -29.398438 28.90625 -29.609375 C 28.820312 -29.816406 28.734375 -30.21875 28.640625 -30.8125 C 28.554688 -31.40625 28.40625 -31.890625 28.1875 -32.265625 C 27.976562 -32.640625 27.691406 -32.9375 27.328125 -33.15625 C 26.703125 -33.550781 25.679688 -33.75 24.265625 -33.75 L 18.46875 -33.75 L 18.46875 -8.546875 C 18.46875 -5.828125 18.585938 -4.078125 18.828125 -3.296875 C 19.066406 -2.515625 19.363281 -1.972656 19.71875 -1.671875 C 20.070312 -1.378906 20.535156 -1.234375 21.109375 -1.234375 L 22.40625 -1.375 C 23.050781 -1.375 23.375 -1.113281 23.375 -0.59375 C 23.375 0.0703125 22.796875 0.40625 21.640625 0.40625 C 21.046875 0.40625 20.414062 0.351562 19.75 0.25 C 17.59375 -0.09375 15.742188 -0.15625 14.203125 0.0625 C 12.671875 0.289062 11.617188 0.40625 11.046875 0.40625 Z M 11.046875 0.40625 "/></g></g></g><g fill="#000000" fill-opacity="1"><g transform="translate(190.330841, 134.030989)"><g><path d="M 3.234375 0.40625 C 2.242188 0.40625 1.75 0.0703125 1.75 -0.59375 C 1.75 -1.113281 2.070312 -1.375 2.71875 -1.375 L 4.046875 -1.234375 C 5.046875 -1.234375 5.726562 -1.664062 6.09375 -2.53125 C 6.488281 -3.519531 6.6875 -5.5 6.6875 -8.46875 L 6.6875 -27.578125 C 6.6875 -30.523438 6.546875 -32.378906 6.265625 -33.140625 C 5.984375 -33.898438 5.671875 -34.378906 5.328125 -34.578125 C 4.992188 -34.773438 4.566406 -34.875 4.046875 -34.875 L 2.71875 -34.765625 C 2.070312 -34.765625 1.75 -35.023438 1.75 -35.546875 C 1.75 -36.210938 2.226562 -36.546875 3.1875 -36.546875 C 4.15625 -36.546875 4.945312 -36.523438 5.5625 -36.484375 C 6.1875 -36.441406 6.8125 -36.390625 7.4375 -36.328125 C 9.113281 -36.191406 10.429688 -36.125 11.390625 -36.125 C 12.347656 -36.125 13.363281 -36.144531 14.4375 -36.1875 C 15.519531 -36.226562 16.726562 -36.273438 18.0625 -36.328125 C 21.5625 -36.472656 23.988281 -36.546875 25.34375 -36.546875 C 26.707031 -36.546875 27.460938 -36.460938 27.609375 -36.296875 C 27.765625 -36.140625 27.84375 -35.921875 27.84375 -35.640625 C 27.84375 -35.367188 27.835938 -35.101562 27.828125 -34.84375 C 27.816406 -34.59375 27.804688 -34.316406 27.796875 -34.015625 C 27.773438 -33.597656 27.71875 -32.976562 27.625 -32.15625 C 27.539062 -31.34375 27.429688 -30.796875 27.296875 -30.515625 C 27.171875 -30.242188 26.992188 -30.109375 26.765625 -30.109375 C 26.535156 -30.109375 26.375 -30.164062 26.28125 -30.28125 C 26.1875 -30.394531 26.0625 -30.660156 25.90625 -31.078125 C 25.757812 -31.503906 25.492188 -31.910156 25.109375 -32.296875 C 24.722656 -32.691406 24.113281 -33.015625 23.28125 -33.265625 C 21.664062 -33.742188 18.675781 -33.984375 14.3125 -33.984375 L 11.90625 -33.984375 C 11.476562 -33.984375 11.207031 -33.921875 11.09375 -33.796875 C 10.976562 -33.671875 10.921875 -33.382812 10.921875 -32.9375 L 10.921875 -21.59375 C 13.054688 -21.34375 14.828125 -21.21875 16.234375 -21.21875 C 17.648438 -21.21875 18.65625 -21.222656 19.25 -21.234375 C 19.851562 -21.253906 20.351562 -21.3125 20.75 -21.40625 C 21.457031 -21.53125 21.960938 -21.84375 22.265625 -22.34375 C 22.878906 -23.300781 23.375 -23.78125 23.75 -23.78125 C 24.226562 -23.78125 24.46875 -23.523438 24.46875 -23.015625 L 23.53125 -19.1875 L 23.640625 -17.140625 C 23.640625 -15.847656 23.332031 -15.203125 22.71875 -15.203125 C 22.195312 -15.203125 21.9375 -15.546875 21.9375 -16.234375 C 21.9375 -16.929688 21.894531 -17.445312 21.8125 -17.78125 C 21.738281 -18.125 21.507812 -18.394531 21.125 -18.59375 C 20.550781 -18.882812 19.148438 -19.03125 16.921875 -19.03125 C 14.691406 -19.03125 12.691406 -18.929688 10.921875 -18.734375 L 10.921875 -12.34375 C 10.921875 -8.375 11.007812 -5.09375 11.1875 -2.5 C 12.644531 -2.175781 14.222656 -2.015625 15.921875 -2.015625 C 17.628906 -2.015625 19.085938 -2.0625 20.296875 -2.15625 C 21.515625 -2.25 22.566406 -2.429688 23.453125 -2.703125 C 25.191406 -3.222656 26.476562 -4.21875 27.3125 -5.6875 C 27.664062 -6.332031 28.019531 -6.65625 28.375 -6.65625 C 28.738281 -6.65625 28.921875 -6.394531 28.921875 -5.875 C 28.921875 -5.65625 28.859375 -5.378906 28.734375 -5.046875 C 28.585938 -4.578125 28.378906 -3.878906 28.109375 -2.953125 C 27.835938 -2.023438 27.628906 -1.351562 27.484375 -0.9375 C 27.347656 -0.53125 27.191406 -0.21875 27.015625 0 C 26.742188 0.363281 26.210938 0.546875 25.421875 0.546875 C 24.628906 0.546875 23.863281 0.539062 23.125 0.53125 C 22.382812 0.519531 21.613281 0.503906 20.8125 0.484375 C 19.875 0.453125 18.425781 0.378906 16.46875 0.265625 C 11.582031 0.0351562 8.71875 -0.0390625 7.875 0.03125 C 7.03125 0.101562 6.390625 0.160156 5.953125 0.203125 C 5.523438 0.242188 5.101562 0.285156 4.6875 0.328125 C 4.269531 0.378906 3.785156 0.40625 3.234375 0.40625 Z M 3.234375 0.40625 "/></g></g></g><g fill="#000000" fill-opacity="1"><g transform="translate(68.656509, 188.954856)"><g><path d="M 3.578125 0.40625 C 2.410156 0.40625 1.828125 0.0703125 1.828125 -0.59375 C 1.828125 -1.113281 2.148438 -1.375 2.796875 -1.375 L 4.125 -1.234375 C 5.195312 -1.234375 5.925781 -1.835938 6.3125 -3.046875 C 6.613281 -4.066406 6.765625 -5.898438 6.765625 -8.546875 L 6.765625 -27.578125 C 6.765625 -30.210938 6.640625 -31.9375 6.390625 -32.75 C 6.140625 -33.570312 5.835938 -34.128906 5.484375 -34.421875 C 5.128906 -34.722656 4.675781 -34.875 4.125 -34.875 L 2.796875 -34.765625 C 2.148438 -34.765625 1.828125 -35.023438 1.828125 -35.546875 C 1.828125 -36.210938 2.320312 -36.546875 3.3125 -36.546875 C 4.300781 -36.546875 5.238281 -36.472656 6.125 -36.328125 C 7.019531 -36.191406 8.007812 -36.125 9.09375 -36.125 C 10.1875 -36.125 11.148438 -36.191406 11.984375 -36.328125 C 12.816406 -36.472656 13.546875 -36.546875 14.171875 -36.546875 C 18.023438 -36.546875 21.132812 -35.378906 23.5 -33.046875 C 25.65625 -30.910156 26.734375 -28.332031 26.734375 -25.3125 C 26.734375 -22.519531 25.65625 -20.09375 23.5 -18.03125 C 21.382812 -16.019531 18.960938 -15.015625 16.234375 -15.015625 C 14.128906 -15.015625 12.6875 -15.425781 11.90625 -16.25 C 11.675781 -16.5 11.5625 -16.769531 11.5625 -17.0625 C 11.5625 -17.363281 11.644531 -17.59375 11.8125 -17.75 C 11.988281 -17.90625 12.203125 -17.984375 12.453125 -17.984375 C 12.703125 -17.984375 13.050781 -17.8125 13.5 -17.46875 C 14.207031 -16.96875 15.082031 -16.71875 16.125 -16.71875 C 17.164062 -16.71875 18.046875 -16.914062 18.765625 -17.3125 C 19.492188 -17.71875 20.113281 -18.289062 20.625 -19.03125 C 21.664062 -20.5625 22.1875 -22.617188 22.1875 -25.203125 C 22.1875 -28.109375 21.375 -30.425781 19.75 -32.15625 C 18.1875 -33.820312 16.160156 -34.65625 13.671875 -34.65625 C 12.753906 -34.65625 12.078125 -34.53125 11.640625 -34.28125 C 11.210938 -34.03125 11 -33.601562 11 -33 L 11 -8.546875 C 11 -5.828125 11.117188 -4.078125 11.359375 -3.296875 C 11.597656 -2.515625 11.894531 -1.972656 12.25 -1.671875 C 12.601562 -1.378906 13.066406 -1.234375 13.640625 -1.234375 L 14.9375 -1.375 C 15.582031 -1.375 15.90625 -1.113281 15.90625 -0.59375 C 15.90625 0.0703125 15.328125 0.40625 14.171875 0.40625 C 13.578125 0.40625 12.953125 0.351562 12.296875 0.25 C 10.140625 -0.09375 8.289062 -0.15625 6.75 0.0625 C 5.21875 0.289062 4.160156 0.40625 3.578125 0.40625 Z M 3.578125 0.40625 "/></g></g></g><g fill="#000000" fill-opacity="1"><g transform="translate(97.547804, 188.954856)"><g><path d="M 3.9375 0.40625 C 2.769531 0.40625 2.1875 0.0703125 2.1875 -0.59375 C 2.1875 -1.113281 2.507812 -1.375 3.15625 -1.375 L 4.46875 -1.234375 C 5.445312 -1.234375 6.125 -1.703125 6.5 -2.640625 C 6.90625 -3.679688 7.109375 -5.648438 7.109375 -8.546875 L 6.984375 -27.578125 C 6.984375 -30.535156 6.820312 -32.394531 6.5 -33.15625 C 6.1875 -33.925781 5.863281 -34.40625 5.53125 -34.59375 C 5.207031 -34.78125 4.8125 -34.875 4.34375 -34.875 L 3.015625 -34.765625 C 2.367188 -34.765625 2.046875 -35.023438 2.046875 -35.546875 C 2.046875 -36.210938 2.539062 -36.546875 3.53125 -36.546875 C 4.519531 -36.546875 5.457031 -36.472656 6.34375 -36.328125 C 7.238281 -36.191406 8.171875 -36.125 9.140625 -36.125 C 10.109375 -36.125 11.03125 -36.191406 11.90625 -36.328125 C 12.789062 -36.472656 13.722656 -36.546875 14.703125 -36.546875 C 15.679688 -36.546875 16.171875 -36.210938 16.171875 -35.546875 C 16.171875 -35.023438 15.847656 -34.765625 15.203125 -34.765625 L 13.90625 -34.875 C 12.9375 -34.875 12.265625 -34.410156 11.890625 -33.484375 C 11.472656 -32.441406 11.265625 -30.472656 11.265625 -27.578125 L 11.40625 -8.546875 C 11.40625 -5.648438 11.578125 -3.804688 11.921875 -3.015625 C 12.273438 -2.222656 12.628906 -1.726562 12.984375 -1.53125 C 13.347656 -1.332031 13.765625 -1.234375 14.234375 -1.234375 L 15.53125 -1.375 C 16.175781 -1.375 16.5 -1.113281 16.5 -0.59375 C 16.5 0.0703125 15.921875 0.40625 14.765625 0.40625 C 14.171875 0.40625 13.546875 0.351562 12.890625 0.25 C 10.640625 -0.113281 8.726562 -0.179688 7.15625 0.046875 C 5.582031 0.285156 4.507812 0.40625 3.9375 0.40625 Z M 3.9375 0.40625 "/></g></g></g><g fill="#000000" fill-opacity="1"><g transform="translate(115.82047, 188.954856)"><g><path d="M 2.1875 0.34375 C 1.71875 0.34375 1.484375 0.226562 1.484375 0 C 1.484375 -0.175781 1.96875 -0.945312 2.9375 -2.3125 L 25.15625 -33.5625 C 23.382812 -33.8125 21.320312 -33.9375 18.96875 -33.9375 C 12.71875 -33.9375 8.734375 -33.253906 7.015625 -31.890625 C 6.453125 -31.441406 6.015625 -30.925781 5.703125 -30.34375 C 5.390625 -29.757812 5.140625 -29.398438 4.953125 -29.265625 C 4.773438 -29.128906 4.578125 -29.0625 4.359375 -29.0625 C 3.835938 -29.0625 3.578125 -29.335938 3.578125 -29.890625 C 3.578125 -30.160156 3.617188 -30.394531 3.703125 -30.59375 C 3.785156 -30.789062 3.878906 -31.050781 3.984375 -31.375 C 4.304688 -32.238281 4.5 -33.132812 4.5625 -34.0625 C 4.625 -34.988281 4.757812 -35.632812 4.96875 -36 C 5.175781 -36.363281 5.535156 -36.546875 6.046875 -36.546875 C 6.554688 -36.546875 7.148438 -36.535156 7.828125 -36.515625 C 8.503906 -36.503906 9.285156 -36.476562 10.171875 -36.4375 C 11.066406 -36.40625 12.046875 -36.367188 13.109375 -36.328125 C 14.179688 -36.296875 15.300781 -36.265625 16.46875 -36.234375 C 18.800781 -36.160156 20.921875 -36.125 22.828125 -36.125 C 24.734375 -36.125 26.285156 -36.191406 27.484375 -36.328125 C 28.691406 -36.472656 29.695312 -36.546875 30.5 -36.546875 C 31.3125 -36.546875 31.71875 -36.332031 31.71875 -35.90625 C 31.6875 -35.539062 31.0625 -34.472656 29.84375 -32.703125 L 8.578125 -2.109375 L 22.453125 -2.109375 C 26.929688 -2.109375 29.890625 -2.84375 31.328125 -4.3125 C 31.753906 -4.78125 32.070312 -5.253906 32.28125 -5.734375 C 32.488281 -6.222656 32.660156 -6.546875 32.796875 -6.703125 C 32.929688 -6.867188 33.125 -6.953125 33.375 -6.953125 C 33.894531 -6.953125 34.15625 -6.65625 34.15625 -6.0625 C 34.15625 -5.9375 34.054688 -5.46875 33.859375 -4.65625 C 33.460938 -3.164062 33.210938 -2 33.109375 -1.15625 C 33.015625 -0.3125 32.863281 0.203125 32.65625 0.390625 C 32.445312 0.578125 32.109375 0.671875 31.640625 0.671875 C 31.171875 0.671875 30.253906 0.585938 28.890625 0.421875 C 27.523438 0.265625 25.8125 0.1875 23.75 0.1875 Z M 2.1875 0.34375 "/></g></g></g><g fill="#000000" fill-opacity="1"><g transform="translate(151.179964, 188.954856)"><g><path d="M 2.1875 0.34375 C 1.71875 0.34375 1.484375 0.226562 1.484375 0 C 1.484375 -0.175781 1.96875 -0.945312 2.9375 -2.3125 L 25.15625 -33.5625 C 23.382812 -33.8125 21.320312 -33.9375 18.96875 -33.9375 C 12.71875 -33.9375 8.734375 -33.253906 7.015625 -31.890625 C 6.453125 -31.441406 6.015625 -30.925781 5.703125 -30.34375 C 5.390625 -29.757812 5.140625 -29.398438 4.953125 -29.265625 C 4.773438 -29.128906 4.578125 -29.0625 4.359375 -29.0625 C 3.835938 -29.0625 3.578125 -29.335938 3.578125 -29.890625 C 3.578125 -30.160156 3.617188 -30.394531 3.703125 -30.59375 C 3.785156 -30.789062 3.878906 -31.050781 3.984375 -31.375 C 4.304688 -32.238281 4.5 -33.132812 4.5625 -34.0625 C 4.625 -34.988281 4.757812 -35.632812 4.96875 -36 C 5.175781 -36.363281 5.535156 -36.546875 6.046875 -36.546875 C 6.554688 -36.546875 7.148438 -36.535156 7.828125 -36.515625 C 8.503906 -36.503906 9.285156 -36.476562 10.171875 -36.4375 C 11.066406 -36.40625 12.046875 -36.367188 13.109375 -36.328125 C 14.179688 -36.296875 15.300781 -36.265625 16.46875 -36.234375 C 18.800781 -36.160156 20.921875 -36.125 22.828125 -36.125 C 24.734375 -36.125 26.285156 -36.191406 27.484375 -36.328125 C 28.691406 -36.472656 29.695312 -36.546875 30.5 -36.546875 C 31.3125 -36.546875 31.71875 -36.332031 31.71875 -35.90625 C 31.6875 -35.539062 31.0625 -34.472656 29.84375 -32.703125 L 8.578125 -2.109375 L 22.453125 -2.109375 C 26.929688 -2.109375 29.890625 -2.84375 31.328125 -4.3125 C 31.753906 -4.78125 32.070312 -5.253906 32.28125 -5.734375 C 32.488281 -6.222656 32.660156 -6.546875 32.796875 -6.703125 C 32.929688 -6.867188 33.125 -6.953125 33.375 -6.953125 C 33.894531 -6.953125 34.15625 -6.65625 34.15625 -6.0625 C 34.15625 -5.9375 34.054688 -5.46875 33.859375 -4.65625 C 33.460938 -3.164062 33.210938 -2 33.109375 -1.15625 C 33.015625 -0.3125 32.863281 0.203125 32.65625 0.390625 C 32.445312 0.578125 32.109375 0.671875 31.640625 0.671875 C 31.171875 0.671875 30.253906 0.585938 28.890625 0.421875 C 27.523438 0.265625 25.8125 0.1875 23.75 0.1875 Z M 2.1875 0.34375 "/></g></g></g><g fill="#000000" fill-opacity="1"><g transform="translate(186.539459, 188.954856)"><g><path d="M 6.015625 0 C 5.097656 0 4.238281 0.0664062 3.4375 0.203125 C 2.632812 0.335938 1.769531 0.40625 0.84375 0.40625 C -0.0820312 0.40625 -0.546875 0.101562 -0.546875 -0.5 C -0.546875 -1.101562 -0.117188 -1.40625 0.734375 -1.40625 C 1.609375 -1.40625 2.234375 -1.566406 2.609375 -1.890625 C 3.222656 -2.441406 3.828125 -3.347656 4.421875 -4.609375 C 5.015625 -5.867188 5.566406 -7.046875 6.078125 -8.140625 C 6.585938 -9.234375 7.175781 -10.507812 7.84375 -11.96875 C 8.507812 -13.4375 9.238281 -15.070312 10.03125 -16.875 C 10.832031 -18.6875 11.675781 -20.609375 12.5625 -22.640625 C 14.863281 -27.972656 16.378906 -31.5625 17.109375 -33.40625 C 17.847656 -35.25 18.257812 -36.269531 18.34375 -36.46875 C 18.425781 -36.664062 18.507812 -36.847656 18.59375 -37.015625 C 18.832031 -37.390625 19.03125 -37.578125 19.1875 -37.578125 C 19.351562 -37.578125 19.488281 -37.550781 19.59375 -37.5 C 19.695312 -37.457031 19.816406 -37.375 19.953125 -37.25 C 20.210938 -36.90625 20.476562 -36.394531 20.75 -35.71875 C 21.019531 -35.050781 21.382812 -34.140625 21.84375 -32.984375 C 22.300781 -31.835938 22.828125 -30.535156 23.421875 -29.078125 C 24.015625 -27.628906 24.644531 -26.066406 25.3125 -24.390625 C 25.976562 -22.722656 26.644531 -21.054688 27.3125 -19.390625 C 27.988281 -17.734375 28.644531 -16.117188 29.28125 -14.546875 C 29.925781 -12.984375 30.5 -11.578125 31 -10.328125 C 32.539062 -6.566406 33.523438 -4.316406 33.953125 -3.578125 C 34.390625 -2.847656 34.753906 -2.335938 35.046875 -2.046875 C 35.492188 -1.617188 36.15625 -1.40625 37.03125 -1.40625 C 37.914062 -1.40625 38.359375 -1.101562 38.359375 -0.5 C 38.359375 0.101562 37.789062 0.40625 36.65625 0.40625 C 36.175781 0.40625 35.757812 0.378906 35.40625 0.328125 C 35.050781 0.285156 34.695312 0.25 34.34375 0.21875 C 33.300781 0.0703125 32.375 0 31.5625 0 L 26.359375 0.40625 C 25.191406 0.40625 24.609375 0.0703125 24.609375 -0.59375 C 24.609375 -1.132812 24.929688 -1.40625 25.578125 -1.40625 L 27.203125 -1.21875 C 27.878906 -1.21875 28.328125 -1.363281 28.546875 -1.65625 C 28.765625 -1.957031 28.875 -2.332031 28.875 -2.78125 C 28.875 -3.625 28.515625 -4.9375 27.796875 -6.71875 L 25.546875 -12.3125 L 10.59375 -12.3125 C 10.164062 -11.238281 9.765625 -10.25 9.390625 -9.34375 C 9.023438 -8.445312 8.691406 -7.578125 8.390625 -6.734375 C 7.898438 -5.367188 7.65625 -4.296875 7.65625 -3.515625 C 7.65625 -2.734375 7.789062 -2.15625 8.0625 -1.78125 C 8.34375 -1.414062 8.875 -1.234375 9.65625 -1.234375 L 11.265625 -1.375 C 11.910156 -1.375 12.234375 -1.113281 12.234375 -0.59375 C 12.234375 0.0703125 11.648438 0.40625 10.484375 0.40625 Z M 24.640625 -14.609375 L 18.21875 -30.671875 C 16.976562 -27.523438 14.757812 -22.171875 11.5625 -14.609375 Z M 24.640625 -14.609375 "/></g></g></g></svg>