<svg xmlns="http://www.w3.org/2000/svg" xmlns:xlink="http://www.w3.org/1999/xlink" width="500" zoomAndPan="magnify" viewBox="0 0 375 374.999991" height="500" preserveAspectRatio="xMidYMid meet" version="1.0"><defs><g/><clipPath id="e78b1b9df6"><path d="M 0 93.417969 L 375 93.417969 L 375 309.273438 L 0 309.273438 Z M 0 93.417969 " clip-rule="nonzero"/></clipPath><clipPath id="6ae72cc2c1"><path d="M 85.28125 255 L 103 255 L 103 309.824219 L 85.28125 309.824219 Z M 85.28125 255 " clip-rule="nonzero"/></clipPath></defs><g clip-path="url(#e78b1b9df6)"><path fill="#000000" d="M 327.613281 253.949219 C 325.777344 254.695312 323.804688 255.3125 321.832031 255.855469 C 317.753906 256.871094 313.875 258.03125 309.726562 259.050781 C 305.578125 260.074219 301.164062 260.890625 296.945312 261.570312 C 292.527344 262.320312 287.5625 262.863281 282.867188 262.863281 C 280.082031 262.863281 277.023438 262.730469 274.371094 262.113281 C 271.652344 261.5 268.863281 261.230469 266.6875 260.480469 C 265.871094 260.210938 265.191406 259.664062 264.445312 259.390625 C 263.628906 259.121094 262.675781 259.050781 261.925781 258.914062 C 262.335938 260.074219 263.148438 261.230469 264.105469 261.910156 C 267.976562 264.769531 274.507812 265.519531 281.371094 265.519531 C 288.3125 265.519531 295.179688 265.378906 301.433594 264.902344 C 308.097656 264.429688 313.742188 263.269531 318.976562 261.570312 C 324.890625 259.664062 330.875 256.804688 333.121094 251.5 C 333.050781 251.5 333.050781 251.429688 332.984375 251.429688 C 331.554688 252.378906 329.582031 253.199219 327.613281 253.949219 Z M 41.410156 244.078125 C 41.480469 243.875 41.75 243.875 41.683594 243.667969 C 41.550781 243.667969 41.410156 243.667969 41.277344 243.667969 C 41.277344 243.875 41.34375 244.011719 41.410156 244.078125 Z M 98.257812 235.167969 C 98.460938 235.300781 98.460938 235.710938 98.800781 235.710938 C 98.933594 235.4375 99.144531 235.371094 99.144531 235.097656 C 98.933594 234.894531 98.394531 235.03125 98.257812 235.167969 Z M 296.808594 231.898438 C 294.292969 232.035156 292.121094 232.308594 289.875 232.78125 C 285.519531 233.667969 281.371094 234.550781 277.296875 236.050781 C 271.855469 237.957031 266.6875 241.152344 262.335938 244.621094 C 261.246094 245.578125 258.664062 247.210938 258.527344 248.710938 C 258.457031 250.207031 259.683594 251.429688 260.636719 252.109375 C 262.335938 253.335938 265.328125 254.015625 267.910156 254.558594 C 270.695312 255.175781 273.757812 255.378906 276.75 255.515625 C 283.007812 255.785156 289.808594 255.921875 295.652344 255.242188 C 301.230469 254.628906 306.804688 253.199219 311.699219 251.769531 C 316.527344 250.339844 322.511719 248.980469 325.910156 246.460938 C 327 245.578125 327.953125 244.417969 328.972656 243.398438 C 329.925781 242.3125 330.808594 241.21875 331.761719 240.066406 C 326.796875 230.671875 310.679688 231.078125 296.808594 231.898438 Z M 297.285156 212.230469 C 296.742188 213.457031 296.605469 215.15625 296.945312 216.585938 C 297.355469 218.355469 298.441406 220.601562 299.328125 221.6875 C 299.871094 222.371094 300.683594 223.050781 301.503906 223.117188 C 304.082031 223.457031 303.8125 221.347656 303.8125 219.238281 C 303.8125 217.808594 304.015625 216.859375 303.949219 215.496094 C 303.949219 214.066406 303.066406 212.230469 302.726562 211.546875 C 302.386719 210.9375 301.636719 208.488281 300.277344 208.621094 C 299.050781 208.757812 297.828125 211.003906 297.285156 212.230469 Z M 329.378906 208.488281 C 328.023438 213.113281 323.53125 218.628906 327.476562 223.117188 C 328.5625 224.34375 330.742188 225.570312 332.097656 224.410156 C 333.867188 222.847656 331.960938 219.648438 331.554688 217.265625 C 331.488281 216.859375 331.351562 215.15625 331.488281 214.273438 C 331.621094 212.773438 332.507812 211.207031 332.507812 208.488281 C 332.507812 207.261719 332.238281 204.878906 330.875 205.289062 C 330.128906 205.492188 329.652344 207.464844 329.378906 208.488281 Z M 142.386719 202.90625 C 142.386719 202.90625 142.320312 202.90625 142.25 202.90625 C 140.621094 203.515625 138.304688 203.382812 136.132812 203.515625 C 135.726562 203.515625 134.5 203.585938 134.90625 203.65625 C 137.628906 203.585938 140.144531 203.722656 142.863281 203.722656 C 142.796875 203.382812 142.523438 203.175781 142.386719 202.90625 Z M 91.796875 224.480469 C 91.933594 227.269531 92.003906 229.992188 92.207031 232.714844 C 93.023438 233.460938 94.519531 233.597656 95.8125 233.871094 C 95.402344 233.121094 95.539062 232.167969 95.335938 231.21875 C 95.128906 230.058594 94.519531 229.039062 94.246094 227.949219 C 93.363281 224.34375 93.160156 220.328125 92.882812 216.175781 C 92.546875 210.9375 91.460938 205.558594 91.660156 200.046875 C 90.097656 208.078125 91.320312 216.652344 91.796875 224.480469 Z M 144.972656 203.65625 C 146.332031 203.246094 146.261719 201.339844 146.738281 199.910156 C 146.671875 199.910156 146.535156 199.910156 146.46875 199.910156 C 145.855469 201.066406 145.652344 202.632812 144.972656 203.65625 Z M 120.765625 203.3125 C 120.765625 203.65625 120.695312 204.199219 120.832031 204.40625 C 122.941406 204.128906 125.320312 204.128906 127.359375 203.722656 C 126.476562 202.632812 125.660156 201.476562 125.660156 199.503906 C 125.253906 201.75 123.28125 205.21875 120.765625 203.3125 Z M 318.976562 216.71875 C 318.5 215.566406 318.296875 213.726562 318.703125 212.5 C 319.453125 209.984375 321.222656 208.078125 321.492188 205.152344 C 321.761719 202.15625 321.222656 200.046875 320.335938 198.074219 C 319.792969 196.984375 319.316406 195.488281 318.023438 195.285156 C 316.460938 195.011719 316.664062 197.257812 316.390625 198.890625 C 315.847656 203.175781 313.742188 205.628906 312.859375 209.304688 C 311.496094 215.359375 314.214844 218.355469 317.007812 220.53125 C 317.890625 221.210938 318.976562 222.300781 320.40625 222.027344 C 321.492188 219.785156 319.65625 218.558594 318.976562 216.71875 Z M 133.410156 195.898438 C 134.023438 195.964844 133.683594 195.214844 133.546875 195.078125 C 133.546875 195.351562 133.410156 195.554688 133.410156 195.898438 Z M 43.453125 186.640625 C 42.160156 186.570312 41.003906 188 39.78125 188.410156 C 41.480469 188.75 41.617188 190.585938 42.976562 191.265625 C 42.976562 189.5 44.742188 188.816406 46.375 189.089844 C 45.359375 188.410156 44.8125 186.707031 43.453125 186.640625 Z M 133.410156 182.554688 C 134.367188 182.828125 135.179688 182.894531 135.453125 182.082031 C 134.640625 181.875 134.023438 181.535156 133.410156 181.058594 C 133.410156 181.535156 133.410156 182.082031 133.410156 182.554688 Z M 82.144531 180.378906 C 83.023438 180.039062 84.519531 179.496094 84.113281 178.476562 C 83.433594 179.085938 82.683594 179.628906 82.144531 180.378906 Z M 134.976562 178.476562 C 139.535156 178.335938 140.28125 173.234375 139.734375 168.742188 C 137.695312 171.601562 135.996094 174.664062 134.976562 178.476562 Z M 128.378906 180.785156 C 127.972656 179.902344 127.566406 179.015625 127.292969 178.269531 C 125.1875 173.167969 121.515625 169.152344 118.792969 164.863281 C 118.726562 164.863281 118.65625 164.863281 118.65625 164.863281 C 118.386719 165 118.316406 165.203125 118.113281 165.339844 C 119.066406 168.128906 120.082031 171.054688 121.515625 173.777344 C 122.941406 176.433594 123.960938 179.359375 125.726562 181.398438 C 126.542969 182.285156 127.632812 183.167969 128.855469 183.441406 C 129.46875 182.488281 128.65625 181.535156 128.378906 180.785156 Z M 94.3125 168.195312 C 93.703125 166.496094 93.363281 165.816406 92.136719 164.863281 C 91.253906 164.183594 91.050781 163.839844 89.824219 163.910156 C 87.855469 164.117188 86.425781 164.796875 84.660156 165.613281 C 74.933594 170.101562 67.320312 175.753906 59.910156 182.285156 C 58.210938 183.78125 56.507812 185.347656 53.449219 184.804688 C 53.039062 185.757812 52.019531 186.707031 52.222656 187.796875 C 52.289062 188.410156 53.242188 189.15625 53.722656 189.566406 C 54.332031 190.179688 54.941406 190.792969 55.488281 190.925781 C 55.828125 189.226562 56.914062 187.867188 57.867188 186.707031 C 60.792969 183.167969 64.667969 180.582031 68.609375 178.066406 C 72.148438 175.820312 75.683594 174.046875 79.015625 171.875 C 80.171875 171.191406 81.054688 170.101562 82.144531 169.421875 C 85.269531 167.585938 89.078125 169.964844 88.195312 173.914062 C 90.84375 172.621094 94.109375 173.640625 95.675781 174.867188 C 95.945312 175.070312 96.28125 175.410156 96.554688 175.34375 C 95.945312 172.960938 95.195312 170.304688 94.3125 168.195312 Z M 141.570312 132.265625 C 141.4375 132.265625 141.296875 132.332031 141.234375 132.332031 C 139.324219 133.011719 137.019531 133.351562 135.585938 134.304688 C 134.160156 135.191406 133.074219 137.4375 131.777344 138.660156 C 131.371094 139.070312 130.757812 139.410156 130.285156 139.613281 C 128.3125 140.429688 126.882812 138.796875 124.707031 138.863281 C 123.824219 140.089844 122.601562 141.792969 122.941406 144.308594 C 123.144531 145.671875 124.164062 146.285156 124.164062 147.914062 C 124.09375 148.871094 123.550781 149.34375 123.210938 150.230469 C 122.394531 152.273438 122.601562 155.746094 121.851562 157.855469 C 121.578125 158.535156 120.898438 159.417969 120.898438 159.960938 C 120.898438 160.644531 121.851562 162.074219 122.328125 162.753906 C 123.074219 163.636719 123.824219 164.25 124.4375 164.929688 C 126.003906 166.632812 127.226562 168.195312 129.125 168.875 C 132.121094 169.832031 132.664062 168.0625 133.003906 165.613281 C 133.273438 164.046875 133.546875 162.6875 133.617188 161.117188 C 131.714844 160.710938 129.605469 159.484375 130.21875 157.308594 C 130.964844 154.449219 135.179688 155.746094 136.746094 157.171875 C 138.171875 157.105469 138.988281 157.714844 140.347656 157.714844 C 140.824219 157.171875 141.296875 156.765625 141.976562 156.152344 C 142.457031 155.746094 143.476562 154.996094 143.542969 154.449219 C 143.542969 154.042969 143.136719 153.496094 143.203125 153.019531 C 143.273438 152.132812 144.160156 152 144.496094 151.386719 C 144.765625 150.980469 144.699219 150.367188 144.839844 149.753906 C 145.039062 149.34375 145.515625 148.800781 145.71875 148.253906 C 145.992188 147.574219 146.058594 146.894531 146.332031 146.488281 C 146.808594 145.601562 147.964844 145.464844 148.777344 144.855469 C 148.777344 141.386719 148.777344 137.234375 148.777344 133.695312 C 145.785156 134.167969 143.816406 132.535156 141.570312 132.265625 Z M 130.964844 117.019531 C 131.644531 116.472656 132.394531 116.066406 133.074219 115.726562 C 136.8125 113.820312 141.027344 112.050781 146.125 111.84375 C 147.148438 111.777344 148.4375 112.121094 149.527344 111.914062 C 150.140625 111.777344 151.839844 110.417969 152.996094 109.601562 C 154.898438 108.375 156.941406 107.558594 157.824219 105.789062 C 158.570312 104.292969 157.957031 102.253906 156.941406 101.773438 C 156.394531 101.433594 153.675781 101.027344 152.996094 101.164062 C 151.90625 101.367188 151.636719 103 150.480469 103.476562 C 149.324219 103.882812 148.167969 103.273438 147.828125 102.253906 C 147.691406 101.914062 147.828125 101.503906 147.691406 101.09375 C 147.417969 100.484375 146.671875 99.871094 146.125 99.390625 C 144.902344 98.234375 143.609375 97.554688 141.570312 97.621094 C 139.394531 97.691406 136.675781 98.710938 134.703125 99.664062 C 132.734375 100.550781 130.625 102.113281 129.742188 103.273438 C 128.992188 104.222656 128.585938 105.585938 128.179688 107.152344 C 127.90625 108.441406 127.632812 109.941406 126.613281 110.144531 C 125.453125 110.351562 124.847656 109.601562 124.640625 108.988281 C 123.894531 106.671875 125.933594 104.359375 126.339844 102.792969 C 122.601562 103.136719 118.179688 103.683594 115.9375 105.789062 C 115.664062 107.355469 115.121094 108.648438 113.558594 108.714844 C 113.011719 108.714844 112.46875 108.242188 111.855469 108.171875 C 109.882812 108.101562 108.457031 110.351562 107.640625 111.574219 C 107.097656 112.324219 106.074219 113.414062 106.214844 114.433594 C 106.347656 116.203125 109.070312 115.792969 109.203125 117.5625 C 109.34375 118.722656 108.664062 119.535156 107.710938 119.601562 C 106.960938 119.742188 106.621094 119.332031 105.941406 119.195312 C 104.308594 118.992188 102.882812 119.535156 101.796875 119.878906 C 101.796875 121.445312 100.023438 121.445312 99.414062 122.601562 C 99.144531 123.074219 99.074219 124.164062 99.007812 124.984375 C 98.933594 125.730469 98.664062 126.75 98.933594 127.5 C 99.074219 127.976562 99.890625 128.523438 100.363281 128.792969 C 102.40625 129.949219 104.511719 129.402344 106.550781 128.523438 C 109.476562 127.226562 110.90625 124.84375 113.214844 122.941406 C 114.714844 121.714844 117.433594 119.535156 119.402344 120.625 C 119.949219 120.421875 121.105469 119.671875 121.648438 120.21875 C 121.445312 121.917969 119.8125 123.144531 118.519531 124.640625 C 117.703125 125.664062 115.664062 127.976562 115.664062 129.472656 C 115.664062 130.832031 116.890625 131.71875 117.5 132.671875 C 119.269531 130.492188 122.054688 129.609375 124.777344 128.792969 C 127.566406 127.976562 130.421875 126.886719 133.003906 125.796875 C 135.65625 124.710938 138.578125 124.03125 140.957031 122.601562 C 143.476562 121.105469 146.195312 120.148438 149.460938 119.808594 C 149.1875 118.582031 148.847656 117.429688 148.847656 116 C 142.1875 115.523438 136.269531 116.40625 131.914062 118.449219 C 131.304688 118.722656 130.558594 119.332031 129.875 118.921875 C 129.46875 117.972656 130.488281 117.429688 130.964844 117.019531 Z M 153.269531 114.570312 C 153.199219 116.273438 153.132812 117.972656 153.609375 119.535156 C 153.949219 120.691406 155.035156 121.984375 153.675781 123.214844 C 154.492188 123.144531 154.695312 122.394531 155.511719 122.191406 C 156.261719 121.984375 157.417969 121.785156 158.296875 121.984375 C 161.015625 122.601562 161.355469 126.820312 159.523438 128.722656 C 158.027344 130.152344 155.714844 130.832031 153.949219 131.992188 C 152.585938 135.53125 154.359375 143.152344 152.925781 146.417969 C 152.382812 147.574219 151.089844 147.984375 149.597656 148.121094 C 149.117188 150.433594 148.710938 153.429688 147.898438 156.085938 C 147.488281 157.375 146.332031 159.824219 145.3125 160.644531 C 144.972656 160.84375 144.628906 161.117188 144.355469 161.1875 C 143 161.59375 141.234375 160.84375 139.941406 161.117188 C 139.871094 162.273438 139.804688 164.183594 139.394531 165.269531 C 143.949219 164.457031 148.238281 166.972656 151.226562 169.082031 C 152.113281 169.761719 153.335938 170.035156 154.015625 170.644531 C 155.171875 171.53125 155.917969 173.027344 157.144531 174.117188 C 158.367188 175.136719 159.453125 176.226562 160.339844 177.386719 C 162.3125 179.96875 163.261719 183.375 163.742188 187.117188 C 164.285156 190.925781 164.964844 194.808594 164.757812 199.230469 C 164.621094 202.15625 164.285156 205.21875 164.078125 208.417969 C 164.007812 209.371094 163.742188 210.664062 163.875 211.617188 C 164.214844 213.113281 164.964844 214.679688 165.234375 216.515625 C 165.574219 218.421875 165.777344 220.257812 165.710938 222.234375 C 167.140625 221.890625 167.886719 220.464844 169.179688 219.851562 C 171.285156 218.761719 173.601562 219.988281 174.210938 221.6875 C 175.164062 224.136719 173.394531 226.113281 172.105469 227.609375 C 172.578125 228.289062 173.121094 228.902344 173.191406 229.925781 C 178.292969 229.308594 182.503906 231.488281 186.789062 233.121094 C 188.832031 233.9375 191.007812 234.550781 193.046875 235.4375 C 195.085938 236.320312 197.328125 236.730469 199.230469 237.683594 C 199.910156 238.089844 200.460938 238.769531 200.730469 239.859375 C 203.519531 237.75 209.296875 239.859375 213.582031 238.703125 C 215.347656 238.296875 217.59375 237.34375 219.292969 236.523438 C 220.109375 236.117188 221.46875 235.914062 221.808594 237 C 222.011719 237.820312 221.402344 238.769531 221.0625 239.519531 C 220.652344 240.339844 220.3125 241.152344 219.902344 241.699219 C 218.613281 243.535156 216.03125 244.011719 214.464844 244.964844 C 215.550781 245.644531 216.300781 245.304688 217.660156 245.238281 C 228.472656 244.964844 241.253906 245.644531 251.59375 246.257812 C 252.203125 245.441406 252.410156 244.351562 252.949219 243.46875 C 249.210938 243.46875 244.996094 243.808594 240.914062 243.667969 C 239.625 243.601562 238.195312 243.328125 237.105469 243.46875 C 236.359375 243.535156 235.882812 244.214844 235.203125 244.148438 C 233.230469 244.011719 232.824219 240.132812 232.550781 238.160156 C 232.210938 235.574219 232.007812 232.847656 231.875 230.265625 C 231.601562 224.820312 231.195312 219.101562 231.195312 213.792969 C 231.195312 208.347656 231.125 202.835938 230.855469 197.050781 C 230.71875 194.535156 230.578125 191.746094 230.578125 188.75 C 230.578125 185.6875 230.445312 182.695312 232.28125 181.875 C 232.757812 181.671875 233.230469 181.875 233.84375 181.738281 C 234.253906 181.605469 234.59375 181.125 235.203125 180.785156 C 238.265625 178.816406 242.546875 177.246094 246.019531 175.886719 C 250.230469 174.1875 254.851562 172.6875 259.683594 171.667969 C 279.808594 167.3125 305.988281 168.128906 325.371094 172.148438 C 335.160156 174.1875 344.132812 177.046875 351.953125 181.464844 C 353.382812 181.058594 353.792969 181.875 354.265625 182.828125 C 354.8125 183.847656 355.289062 184.597656 354.0625 185.078125 C 354.199219 194.261719 353.585938 202.699219 353.585938 211.820312 C 354.199219 208.488281 359.433594 208.417969 363.445312 208.417969 C 365.488281 208.417969 367.324219 208.894531 369.296875 209.238281 C 371.539062 209.644531 375.417969 210.117188 375.007812 213.25 C 374.667969 215.292969 372.082031 215.835938 369.835938 216.378906 C 368.277344 216.71875 366.304688 217.265625 364.398438 217.265625 C 359.707031 217.335938 354.539062 216.378906 353.585938 212.773438 C 353.113281 221.484375 353.382812 230.332031 353.246094 239.246094 C 353.042969 248.097656 353.246094 257.011719 352.90625 265.585938 C 357.800781 265.925781 362.695312 265.71875 364.671875 268.851562 C 365.351562 269.941406 365.691406 271.371094 366.167969 272.800781 C 367.660156 277.222656 366.84375 282.460938 362.429688 283.6875 C 361.066406 284.097656 359.296875 283.621094 357.460938 283.621094 C 352.363281 283.621094 346.785156 283.960938 341.824219 283.960938 C 328.15625 283.960938 313.875 282.191406 301.363281 281.648438 C 301.503906 280.625 303 280.625 303.949219 280.558594 C 307.625 280.351562 311.628906 280.351562 315.238281 280.148438 C 319.996094 279.875 324.960938 279.265625 329.515625 278.992188 C 339.308594 278.3125 348.964844 277.5625 357.667969 276 C 357.667969 275.179688 357.53125 273.683594 356.984375 273.34375 C 355.765625 272.730469 353.453125 272.660156 351.613281 272.460938 C 347.808594 271.980469 344 271.710938 340.054688 271.507812 C 339.035156 271.4375 338.082031 271.371094 337.132812 271.234375 C 336.386719 271.097656 335.636719 270.621094 334.890625 270.484375 C 333.050781 270.28125 330.808594 270.621094 328.835938 270.757812 C 326.796875 270.828125 324.691406 270.828125 322.648438 270.828125 C 318.5 270.828125 314.558594 270.960938 311.222656 269.804688 C 304.355469 270.828125 296.128906 271.914062 287.699219 271.914062 C 282.597656 271.914062 277.023438 271.847656 272.667969 271.03125 C 271.71875 270.828125 270.695312 270.828125 269.816406 270.691406 C 267.976562 270.417969 266.417969 269.804688 264.851562 269.191406 C 264.445312 269.058594 263.015625 269.328125 262.199219 269.398438 C 261.3125 269.398438 260.429688 269.601562 259.617188 269.667969 C 257.847656 269.804688 255.875 269.734375 254.039062 269.734375 C 250.230469 269.734375 246.359375 270.007812 242.953125 269.871094 C 239.625 269.804688 236.019531 269.53125 232.347656 269.191406 C 230.648438 269.058594 229.082031 269.125 227.042969 268.851562 C 225.683594 268.71875 222.691406 268.71875 222.488281 267.902344 C 222.351562 267.492188 222.554688 267.011719 223.238281 266.945312 C 223.171875 264.835938 225.34375 264.902344 227.65625 264.835938 C 231.875 264.628906 236.15625 264.628906 240.097656 264.222656 C 245.539062 263.679688 251.117188 263.136719 256.417969 263.136719 C 255.941406 262.320312 254.921875 261.910156 254.3125 261.027344 C 253.699219 260.210938 253.496094 259.1875 252.949219 258.304688 C 246.152344 258.847656 238.605469 257.554688 231.535156 257.214844 C 229.492188 257.078125 226.367188 256.871094 226.09375 255.105469 C 225.957031 254.082031 226.5 253.808594 227.042969 253.269531 C 223.917969 253.0625 220.925781 252.65625 218.277344 252.039062 C 216.84375 255.242188 216.574219 259.730469 213.445312 261.230469 C 211.269531 262.320312 207.527344 261.09375 207.730469 258.914062 C 207.9375 256.804688 211.335938 257.488281 212.492188 256.191406 C 212.828125 253.878906 213.582031 251.90625 213.921875 249.589844 C 212.5625 250.273438 211.542969 251.769531 210.386719 253.199219 C 209.976562 253.742188 209.296875 254.492188 208.753906 255.242188 C 208.210938 256.058594 207.730469 256.871094 206.710938 256.871094 C 204.195312 256.738281 205.761719 253.609375 206.578125 252.449219 C 207.257812 251.429688 207.871094 250.679688 208.074219 249.589844 C 206.917969 250.476562 205.691406 251.769531 204.535156 253.199219 C 203.585938 254.355469 202.429688 256.804688 201 256.941406 C 199.980469 257.011719 199.300781 256.464844 199.230469 255.582031 C 199.03125 253.878906 201.410156 252.3125 201.410156 250.476562 C 201.070312 250.410156 200.660156 251.019531 200.320312 251.429688 C 199.371094 252.519531 198.144531 254.21875 197.535156 255.582031 C 197.058594 256.601562 196.988281 258.167969 195.628906 258.234375 C 194.8125 258.234375 194.199219 257.488281 194.066406 256.601562 C 193.589844 253.878906 195.085938 251.359375 196.648438 249.457031 C 198.417969 247.414062 200.867188 244.964844 203.996094 245.511719 C 205.082031 245.03125 205.761719 244.691406 206.984375 244.621094 C 207.871094 244.621094 208.890625 245.171875 209.703125 245.101562 C 210.113281 245.03125 211.542969 244.148438 212.152344 243.875 C 214.667969 242.71875 217.1875 241.628906 218.613281 239.382812 C 217.046875 240.539062 214.941406 241.019531 211.949219 241.085938 C 209.164062 241.152344 205.492188 240.539062 203.652344 241.359375 C 202.089844 242.105469 202.019531 244.488281 200.386719 244.761719 C 199.164062 244.898438 198.964844 242.855469 199.4375 242.039062 C 199.230469 241.628906 199.03125 241.085938 198.964844 240.472656 C 193.386719 237.957031 187.878906 235.640625 181.757812 234.007812 C 179.921875 233.460938 178.496094 233.121094 176.660156 233.328125 C 174.820312 233.53125 173.9375 234.277344 172.648438 235.167969 C 171.558594 235.914062 170.199219 236.457031 168.972656 237.480469 C 168.566406 237.820312 167.886719 238.226562 167.273438 238.703125 C 166.800781 239.109375 166.1875 239.929688 165.574219 239.929688 C 165.097656 239.929688 165.027344 239.519531 164.558594 239.382812 C 163.808594 239.179688 162.921875 239.382812 162.582031 238.703125 C 162.039062 242.3125 156.800781 240.132812 157.617188 236.523438 C 156.667969 236.660156 155.917969 237.34375 154.492188 237 C 153.742188 236.863281 153.402344 236.253906 152.792969 236.050781 C 152.175781 235.710938 151.226562 235.710938 150.550781 235.234375 C 147.417969 233.394531 148.847656 227.882812 149.597656 223.796875 C 150.550781 218.695312 151.363281 212.773438 151.839844 206.855469 C 152.175781 201.953125 152.792969 196.847656 151.636719 192.765625 C 150.683594 196.984375 150.683594 201.613281 148.847656 204.609375 C 146.875 207.808594 139.394531 206.988281 134.367188 206.988281 C 130.757812 206.921875 127.292969 206.789062 123.960938 207.125 C 122.804688 207.261719 121.515625 206.988281 120.628906 207.195312 C 120.015625 207.398438 119.8125 208.214844 118.863281 208.148438 C 117.160156 208.078125 116.617188 204.949219 116.210938 203.175781 C 115.664062 200.929688 115.527344 198.617188 115.257812 196.441406 C 114.917969 194.328125 114.304688 192.289062 113.832031 190.246094 C 112.402344 184.257812 110.769531 177.589844 108.320312 172.824219 C 106.621094 169.558594 103.632812 166.90625 103.289062 162.546875 C 102.066406 162.414062 100.433594 162.480469 99.34375 162.6875 C 99.957031 163.976562 100.980469 164.929688 101.796875 166.15625 C 103.359375 168.605469 104.445312 171.53125 105.261719 174.867188 C 105.601562 176.433594 106.285156 177.996094 106.691406 179.496094 C 108.457031 185.824219 109.75 192.902344 110.222656 200.25 C 110.769531 208.28125 110.15625 215.972656 109.75 223.59375 C 109.613281 225.296875 109.476562 227.269531 109.203125 229.175781 C 109 231.011719 108.9375 233.054688 108.457031 234.484375 C 107.710938 236.730469 105.738281 237.957031 103.421875 238.566406 C 102.609375 238.769531 101.796875 238.703125 100.910156 239.042969 C 99.824219 239.519531 99.550781 240.40625 98.597656 240.8125 C 96.625 241.628906 93.703125 241.085938 91.867188 240.609375 C 89.625 240 87.582031 239.65625 86.019531 238.839844 C 82.550781 236.863281 81.054688 233.734375 80.03125 229.585938 C 77.992188 221.144531 78.808594 210.597656 79.355469 201.136719 C 77.3125 201.75 75.003906 202.699219 72.894531 203.925781 C 72.417969 204.199219 71.261719 204.675781 71.0625 205.152344 C 70.789062 205.832031 70.921875 207.261719 70.652344 208.007812 C 69.699219 210.527344 67.320312 212.367188 64.394531 213.25 C 62.558594 213.726562 58.480469 214.882812 58.140625 212.160156 C 50.253906 220.53125 41.480469 228.019531 36.039062 238.90625 C 36.175781 239.382812 36.652344 239.519531 36.855469 239.929688 C 38.625 239.382812 40.597656 239.859375 42.707031 240.339844 C 44.269531 240.679688 45.898438 240.746094 47.054688 241.019531 C 48.28125 241.289062 49.296875 242.242188 48.890625 243.875 C 72.011719 243.535156 95.265625 242.449219 118.316406 241.832031 C 129.605469 241.5625 141.507812 240.472656 153.132812 241.019531 C 159.046875 241.289062 164.894531 241.152344 170.539062 241.492188 C 174.6875 241.832031 178.765625 242.039062 183.1875 242.171875 C 183.867188 242.242188 184.546875 242.3125 185.15625 242.449219 C 185.632812 242.582031 186.109375 243.058594 186.652344 243.128906 C 187.0625 243.195312 187.539062 242.988281 187.945312 243.058594 C 188.832031 243.128906 189.710938 243.667969 190.460938 243.667969 C 191.347656 243.667969 192.09375 243.261719 193.046875 243.398438 C 196.511719 243.941406 196.71875 249.183594 193.519531 250.273438 C 193.046875 250.410156 192.5 250.273438 191.824219 250.410156 C 191.074219 250.613281 190.394531 251.566406 189.03125 251.292969 C 187.398438 250.886719 186.109375 249.183594 184.886719 248.300781 C 182.03125 248.570312 179.171875 248.300781 176.253906 248.164062 C 173.328125 247.960938 170.335938 248.027344 167.273438 248.027344 C 161.355469 248.027344 155.375 247.824219 149.460938 247.824219 C 137.425781 247.824219 125.386719 248.164062 113.558594 248.027344 C 131.578125 249.183594 151.15625 248.640625 169.722656 248.640625 C 172.78125 248.640625 175.84375 248.164062 179.039062 248.570312 C 180.257812 248.710938 181.621094 248.84375 183.320312 249.046875 C 184.683594 249.25 186.585938 249.523438 186.652344 250.410156 C 186.789062 252.039062 183.050781 251.839844 181.621094 251.839844 C 179.378906 251.90625 177.339844 252.179688 175.503906 252.039062 C 171.421875 251.699219 167.40625 251.292969 163.601562 251.089844 C 150.957031 250.476562 138.238281 251.019531 125.933594 251.359375 C 113.488281 251.699219 101.25 252.722656 88.398438 252.109375 C 89.824219 254.148438 87.71875 257.964844 86.632812 260.6875 C 83.914062 267.421875 80.988281 273.820312 78.335938 280.625 C 76.632812 285.050781 75.207031 289.882812 73.777344 294.984375 C 72.824219 298.253906 71.398438 301.996094 70.242188 305.53125 C 69.632812 307.371094 69.019531 309.277344 66.84375 308.121094 C 65.957031 308.734375 65.140625 309.414062 63.441406 309.003906 C 58.34375 307.914062 58.34375 297.433594 59.566406 291.921875 C 60.246094 288.792969 61.128906 285.933594 62.148438 283.351562 C 65.347656 275.523438 70.382812 269.058594 75.136719 262.863281 C 76.773438 260.753906 78.539062 258.710938 80.582031 257.078125 C 81.597656 256.261719 82.753906 255.582031 83.703125 254.628906 C 84.589844 253.675781 85.476562 252.789062 86.632812 252.109375 C 76.15625 251.632812 65.007812 251.566406 54.128906 252.039062 C 51.679688 252.109375 48.824219 252.246094 46.105469 252.109375 C 45.289062 252.039062 44.132812 251.839844 43.589844 251.972656 C 42.839844 252.109375 42.089844 253.609375 41.550781 254.082031 C 40.871094 254.558594 40.054688 255.039062 39.238281 255.445312 C 37.539062 256.261719 36.449219 257.28125 33.660156 257.078125 C 33.1875 257.078125 32.640625 256.804688 32.234375 256.871094 C 31.417969 256.941406 31.011719 257.691406 30.191406 257.761719 C 29.648438 257.828125 29.171875 257.828125 28.765625 257.691406 C 27.949219 257.488281 27.203125 256.671875 26.179688 256.601562 C 25.296875 256.53125 24.550781 257.488281 23.394531 257.625 C 22.308594 257.761719 21.691406 257.417969 20.605469 256.941406 C 18.292969 258.304688 14.824219 256.601562 14.417969 254.289062 C 14.144531 252.589844 15.367188 251.089844 15.367188 249.117188 C 13.125 249.320312 10.882812 248.710938 8.636719 248.570312 C 5.714844 248.300781 2.929688 248.300781 1.15625 246.9375 C -0.40625 245.78125 -0.472656 243.261719 1.5 242.171875 C 2.789062 241.492188 5.375 241.21875 7.617188 241.019531 C 10.8125 240.746094 14.960938 240.339844 17.003906 241.492188 C 17.410156 241.765625 17.953125 242.449219 18.496094 242.789062 C 19.3125 243.328125 19.71875 245.238281 19.382812 246.664062 C 19.179688 247.550781 18.699219 248.300781 18.496094 249.320312 C 18.292969 250.410156 18.359375 251.90625 19.039062 252.109375 C 19.65625 252.3125 21.351562 249.863281 21.625 249.320312 C 22.035156 248.503906 22.308594 245.238281 23.394531 245.578125 C 24.34375 245.851562 23.460938 247.484375 23.253906 247.6875 C 26.179688 248.503906 23.121094 251.769531 23.054688 253.402344 C 24.210938 253.808594 24.480469 252.449219 24.75 251.769531 C 25.5 250.207031 25.773438 248.371094 26.792969 246.871094 C 27.203125 246.324219 27.949219 245.371094 28.765625 245.441406 C 30.328125 245.578125 29.449219 248.371094 29.171875 249.589844 C 28.765625 251.160156 27.949219 252.378906 28.359375 253.878906 C 29.378906 254.972656 29.855469 252.449219 30.125 251.839844 C 30.804688 250.136719 31.417969 248.980469 32.234375 247.003906 C 32.507812 246.394531 33.1875 244.691406 34.339844 245.578125 C 35.222656 246.324219 34.136719 248.027344 33.660156 249.386719 C 33.457031 250.070312 33.1875 250.679688 33.046875 251.359375 C 32.980469 251.90625 32.84375 253.199219 33.390625 253.402344 C 34.542969 253.742188 35.628906 251.5 36.175781 250.679688 C 36.449219 250.273438 36.921875 249.589844 37.265625 248.980469 C 37.601562 248.4375 38.21875 247.824219 38.21875 247.210938 C 38.21875 246.121094 36.855469 245.710938 36.175781 245.171875 C 35.628906 244.691406 35.355469 244.078125 34.75 243.46875 C 31.757812 245.238281 27.949219 242.988281 27.882812 239.382812 C 27.882812 237.410156 28.765625 235.503906 29.582031 233.800781 C 31.890625 228.96875 35.566406 224.890625 38.828125 221.210938 C 43.722656 215.632812 48.960938 211.480469 54.058594 207.328125 C 52.699219 205.832031 50.859375 204.609375 49.230469 203.175781 C 46.308594 200.457031 43.3125 197.1875 40.871094 193.582031 C 40.324219 192.835938 39.710938 191.878906 38.898438 191.066406 C 38.148438 190.179688 36.921875 189.636719 36.855469 188.34375 C 36.855469 186.570312 38.757812 185.550781 39.984375 184.597656 C 41.34375 183.578125 42.707031 182.421875 44.609375 182.421875 C 45.96875 182.421875 46.851562 183.101562 47.800781 183.578125 C 48.890625 182.082031 49.570312 180.925781 51.003906 180.105469 C 51.882812 179.628906 52.90625 179.96875 54.128906 179.628906 C 54.878906 179.425781 55.894531 178.269531 56.710938 177.589844 C 63.851562 171.054688 72.894531 166.292969 82.210938 162.074219 C 84.453125 161.050781 86.566406 160.503906 89.285156 159.960938 C 93.566406 159.078125 100.707031 157.988281 105.261719 160.097656 C 107.640625 159.824219 108.664062 161.59375 110.023438 163.09375 C 112.535156 165.882812 114.78125 168.742188 116.414062 172.214844 C 117.570312 174.597656 118.589844 176.976562 119.742188 179.359375 C 120.898438 181.738281 121.921875 184.257812 122.667969 186.777344 C 123.28125 186.164062 123.417969 185.144531 123.894531 184.328125 C 121.578125 180.71875 119.066406 176.5 117.363281 172.007812 C 117.09375 171.328125 117.027344 170.511719 116.683594 170.035156 C 116.34375 169.421875 115.460938 168.945312 114.917969 168.195312 C 114.4375 167.445312 113.964844 166.699219 113.488281 166.019531 C 112.605469 164.863281 110.699219 163.367188 110.496094 161.867188 C 110.089844 158.945312 112.941406 158.195312 115.59375 158.398438 C 116.546875 156.96875 116.683594 153.632812 116.683594 151.386719 C 116.683594 149.957031 116.003906 149.210938 115.527344 147.984375 C 114.648438 145.875 114.578125 142.335938 113.625 140.226562 C 112.808594 138.320312 110.835938 137.367188 109.816406 136.003906 C 106.691406 137.503906 102.882812 136.621094 100.09375 135.53125 C 97.238281 134.441406 94.925781 132.535156 93.972656 129.8125 C 92.882812 126.546875 94.039062 122.535156 95.675781 120.488281 C 97.441406 118.175781 99.683594 116.472656 103.082031 116.066406 C 102.203125 113.003906 103.96875 110.011719 105.738281 108.101562 C 107.234375 106.539062 109.203125 105.3125 111.585938 105.242188 C 113.488281 100.6875 120.695312 101.027344 126.613281 100.753906 C 129.398438 97.082031 133.207031 93.949219 138.917969 93.472656 C 145.175781 92.925781 149.871094 96.941406 154.828125 98.300781 C 155.785156 98.507812 157.011719 98.507812 157.890625 98.847656 C 160.75 100.003906 162.378906 104.5625 160.679688 108.101562 C 159.183594 111.234375 156.667969 113.277344 153.269531 114.570312 " fill-opacity="1" fill-rule="evenodd"/></g><path fill="#000000" d="M 308.570312 146.417969 C 313.402344 145.671875 319.585938 146.757812 323.804688 148.253906 C 325.980469 149.074219 328.292969 150.09375 327.34375 153.359375 C 333.1875 151.867188 341.753906 153.699219 342.574219 159.621094 C 346.445312 158.535156 350.59375 160.304688 353.519531 162.074219 C 355.832031 163.5 357.667969 165.339844 357.460938 168.535156 C 361.136719 167.789062 365.214844 168.605469 365.417969 171.808594 C 365.691406 175.070312 363.039062 177.113281 361.339844 178.746094 C 360.796875 179.292969 360.523438 180.445312 359.570312 180.308594 C 358.007812 177.859375 360.933594 176.296875 361 173.777344 C 360.042969 173.574219 358.824219 173.4375 357.941406 173.777344 C 357.125 174.046875 356.511719 175.277344 355.765625 175.957031 C 355.015625 176.636719 354.0625 177.519531 352.90625 177.386719 C 352.160156 177.316406 351.339844 176.636719 351.207031 175.957031 C 350.867188 174.1875 352.566406 173.167969 353.179688 172.148438 C 352.636719 170.785156 353.246094 169.015625 352.636719 167.855469 C 351.820312 166.292969 348.964844 165.613281 347.058594 165.066406 C 346.378906 164.863281 345.289062 164.457031 344.746094 164.523438 C 344.132812 164.589844 342.574219 166.085938 342.164062 166.5625 C 341.484375 167.246094 340.875 168.195312 340.195312 169.015625 C 339.375 170.035156 337.742188 172.148438 336.386719 170.511719 C 335.09375 168.945312 337.132812 167.105469 337.742188 165.882812 C 337.265625 163.976562 338.082031 161.324219 336.992188 160.03125 C 336.453125 159.417969 334.003906 158.804688 332.917969 158.601562 C 331.488281 158.328125 329.378906 158.261719 328.363281 158.875 C 327.203125 159.484375 326.660156 161.050781 325.910156 162.207031 C 325.164062 163.433594 324.480469 165 323.191406 165.269531 C 322.035156 165.546875 320.816406 164.796875 320.675781 163.707031 C 320.40625 162.074219 321.695312 159.28125 322.242188 158.054688 C 323.058594 156.285156 323.464844 154.65625 323.871094 152.472656 C 320.472656 152.132812 316.390625 150.84375 313.195312 152.273438 C 312.179688 152.679688 311.496094 153.699219 310.476562 153.835938 C 309.726562 153.976562 309.183594 153.632812 308.710938 154.042969 C 308.097656 154.515625 307.964844 156.628906 307.691406 157.582031 C 307.144531 159.894531 306.875 161.867188 304.96875 162.820312 C 302.453125 164.117188 299.597656 162.273438 299.394531 159.621094 C 299.261719 158.054688 299.871094 156.425781 300.007812 154.722656 C 300.347656 149.617188 300.683594 144.242188 300.753906 139.203125 C 295.449219 140.226562 289.941406 141.652344 285.179688 143.492188 C 285.792969 146.828125 286.339844 150.570312 287.019531 153.90625 C 287.359375 155.402344 287.632812 157.582031 287.832031 159.28125 C 287.972656 160.84375 288.648438 163.839844 287.222656 164.117188 C 285.589844 164.386719 284.910156 159.960938 284.503906 158.601562 C 283.820312 156.355469 283.140625 154.382812 282.460938 152.339844 C 281.851562 152.546875 281.441406 153.226562 280.695312 153.496094 C 279.128906 154.175781 277.363281 153.359375 275.730469 153.835938 C 275.457031 156.695312 275.730469 160.984375 272.742188 160.777344 C 271.789062 160.777344 271.515625 160.164062 270.96875 159.621094 C 269 159.691406 268.453125 157.785156 268.453125 155.945312 C 268.453125 154.789062 268.726562 153.566406 267.773438 153.089844 C 262.132812 155.265625 255.804688 156.832031 250.84375 159.691406 C 251.046875 161.734375 252.136719 164.523438 252.066406 166.972656 C 252.066406 168.535156 250.910156 171.257812 248.941406 169.695312 C 248.394531 169.21875 248.394531 168.335938 248.125 167.515625 C 247.171875 164.589844 244.925781 161.457031 243.703125 158.945312 C 238.265625 162.347656 232.144531 165 226.707031 168.335938 C 228.335938 170.785156 229.289062 173.167969 230.105469 176.839844 C 230.308594 177.726562 230.789062 179.425781 230.171875 179.96875 C 229.152344 180.855469 227.722656 179.425781 227.113281 178.40625 C 226.433594 177.179688 225.824219 175.957031 225.34375 175.207031 C 223.988281 173.097656 221.195312 171.464844 220.722656 168.945312 C 220.515625 168.0625 220.722656 166.972656 221.195312 166.222656 C 222.148438 164.589844 224.054688 163.230469 225.890625 162.074219 C 227.65625 160.914062 229.289062 159.824219 231.328125 158.875 C 233.640625 157.785156 235.273438 157.105469 237.378906 156.152344 C 240.4375 154.65625 245.539062 152.203125 247.445312 156.21875 C 251.320312 153.226562 256.691406 150.980469 262.265625 149.003906 C 265.121094 147.984375 269 146.351562 271.242188 148.9375 C 272.332031 148.253906 273.757812 147.914062 275.050781 147.4375 C 274.574219 143.765625 274.710938 139.953125 277.089844 138.183594 C 278.453125 137.164062 280.421875 136.414062 282.328125 135.734375 C 287.632812 133.761719 295.113281 131.652344 301.363281 131.3125 C 303.335938 131.175781 305.105469 131.3125 306.191406 132.058594 C 309.460938 134.507812 308.777344 141.3125 308.570312 146.417969 " fill-opacity="1" fill-rule="evenodd"/><path fill="#000000" d="M 355.289062 196.304688 C 356.785156 195.554688 359.09375 194.535156 361.339844 194.738281 C 363.378906 194.945312 365.625 196.03125 365.488281 198.484375 C 365.417969 199.980469 364.261719 201.207031 362.765625 201.339844 C 361.816406 201.476562 359.707031 201.273438 358.480469 200.863281 C 358.074219 200.726562 357.734375 200.316406 357.324219 200.117188 C 356.851562 199.84375 356.304688 199.84375 356.105469 199.707031 C 355.082031 198.957031 355.355469 197.460938 355.289062 196.304688 " fill-opacity="1" fill-rule="evenodd"/><path fill="#000000" d="M 38.625 196.097656 C 39.78125 196.03125 38.964844 198.140625 38.625 199.027344 C 37.671875 201.886719 36.378906 204.746094 35.292969 207.195312 C 32.101562 214.339844 28.765625 221.757812 25.976562 228.835938 C 25.230469 230.605469 24.414062 232.441406 23.867188 234.414062 C 23.253906 236.320312 22.371094 238.226562 21.898438 240.199219 C 21.558594 241.425781 21.625 242.789062 20.605469 242.988281 C 19.039062 243.261719 18.160156 241.152344 18.089844 239.589844 C 18.019531 237.34375 18.699219 234.757812 19.445312 232.847656 C 23.253906 223.660156 27.609375 214.476562 32.234375 205.832031 C 33.523438 203.382812 35.019531 200.929688 36.71875 198.414062 C 37.195312 197.667969 37.875 196.167969 38.625 196.097656 " fill-opacity="1" fill-rule="evenodd"/><path fill="#000000" d="M 220.515625 197.1875 C 222.214844 197.121094 223.847656 197.734375 225.207031 198.414062 C 225.890625 198.753906 226.707031 199.503906 226.433594 200.523438 C 226.296875 201.136719 225.480469 201.207031 224.867188 201.546875 C 223.578125 202.226562 222.691406 203.382812 220.449219 203.382812 C 218.75 203.449219 217.253906 202.90625 215.691406 202.496094 C 214.328125 202.089844 212.492188 201.546875 212.492188 200.046875 C 212.492188 198.484375 214.191406 198.007812 215.550781 197.734375 C 217.1875 197.460938 219.089844 197.328125 220.515625 197.1875 " fill-opacity="1" fill-rule="evenodd"/><path fill="#000000" d="M 222.828125 212.027344 C 224.527344 211.890625 225.480469 212.636719 226.707031 213.457031 C 227.453125 213.996094 228.0625 214.542969 228.0625 215.292969 C 227.992188 216.652344 225.207031 217.46875 223.847656 217.46875 C 222.214844 217.46875 220.039062 215.972656 220.039062 214.339844 C 219.972656 212.773438 221.0625 212.230469 222.828125 212.027344 " fill-opacity="1" fill-rule="evenodd"/><path fill="#000000" d="M 359.773438 221.007812 C 361.746094 220.804688 365.554688 222.167969 366.777344 223.59375 C 367.253906 224.136719 367.730469 225.230469 367.390625 226.042969 C 366.984375 227 365.351562 226.65625 364.398438 226.859375 C 363.515625 227.066406 362.628906 227.679688 361.609375 227.949219 C 359.027344 228.628906 355.832031 227.542969 355.832031 224.550781 C 355.898438 222.4375 357.390625 221.277344 359.773438 221.007812 " fill-opacity="1" fill-rule="evenodd"/><path fill="#000000" d="M 219.15625 221.960938 C 221.402344 221.757812 223.171875 222.4375 224.867188 223.253906 C 225.824219 223.660156 226.636719 224.34375 226.636719 225.5 C 226.636719 227.269531 223.917969 229.109375 222.621094 229.652344 C 220.175781 230.808594 217.933594 230.265625 214.871094 230.058594 C 213.445312 229.992188 212.015625 230.058594 210.726562 229.925781 C 208.480469 229.652344 205.015625 229.109375 204.945312 227.066406 C 204.945312 225.023438 209.296875 224.070312 211.066406 223.59375 C 212.355469 223.1875 213.71875 222.980469 215.007812 222.710938 C 216.4375 222.4375 217.660156 222.097656 219.15625 221.960938 " fill-opacity="1" fill-rule="evenodd"/><path fill="#000000" d="M 289.535156 236.863281 C 291.640625 236.660156 297.625 236.457031 297.695312 238.839844 C 297.761719 240.40625 295.925781 240.679688 294.363281 241.152344 C 292.121094 241.902344 288.917969 242.988281 286.816406 241.765625 C 284.976562 240.679688 285.453125 238.296875 287.15625 237.34375 C 287.832031 237 288.445312 236.933594 289.535156 236.863281 " fill-opacity="1" fill-rule="evenodd"/><path fill="#000000" d="M 314.558594 237.207031 C 316.460938 236.933594 321.152344 237.957031 321.152344 239.929688 C 321.152344 241.359375 319.585938 241.699219 318.5 242.039062 C 317.277344 242.449219 316.257812 243.128906 314.964844 243.128906 C 312.039062 243.128906 311.15625 239.792969 312.585938 238.160156 C 313.0625 237.613281 313.742188 237.34375 314.558594 237.207031 " fill-opacity="1" fill-rule="evenodd"/><path fill="#000000" d="M 359.230469 238.296875 C 361.679688 237.957031 363.246094 239.246094 365.144531 240.339844 C 366.4375 241.085938 368.140625 242.105469 367.9375 243.738281 C 367.730469 245.511719 365.757812 245.441406 364.332031 245.578125 C 362.429688 245.78125 361.339844 246.53125 359.636719 246.324219 C 357.734375 246.191406 356.105469 244.621094 355.832031 242.988281 C 355.492188 240.539062 357.054688 238.636719 359.230469 238.296875 " fill-opacity="1" fill-rule="evenodd"/><path fill="#000000" d="M 274.304688 243.46875 C 276.75 243.328125 277.972656 243.46875 279.203125 244.832031 C 279.46875 245.171875 279.949219 245.578125 280.015625 246.121094 C 280.355469 248.027344 278.519531 249.523438 276.816406 250.273438 C 273.757812 251.5 267.640625 250.410156 268.65625 246.460938 C 269.203125 244.488281 271.515625 243.601562 274.304688 243.46875 " fill-opacity="1" fill-rule="evenodd"/><path fill="#000000" d="M 306.464844 245.441406 C 307.757812 245.238281 310.816406 246.257812 310.816406 247.890625 C 310.816406 249.589844 308.03125 250.136719 306.53125 250 C 303.746094 249.726562 303.609375 245.78125 306.464844 245.441406 " fill-opacity="1" fill-rule="evenodd"/><path fill="#000000" d="M 291.097656 245.984375 C 292.730469 245.917969 294.363281 246.664062 295.992188 247.34375 C 297.082031 247.824219 298.101562 248.570312 298.03125 249.660156 C 297.964844 250.820312 296.671875 251.019531 295.585938 251.359375 C 293.886719 251.839844 293.070312 252.859375 291.097656 252.859375 C 287.289062 252.859375 285.792969 248.164062 289.058594 246.460938 C 289.667969 246.121094 290.007812 246.050781 291.097656 245.984375 " fill-opacity="1" fill-rule="evenodd"/><path fill="#000000" d="M 149.1875 255.175781 C 151.769531 254.558594 152.3125 257.417969 152.792969 259.9375 C 153.949219 265.378906 154.289062 271.710938 154.492188 278.042969 C 154.765625 284.84375 154.421875 290.765625 153.609375 296.753906 C 153.132812 299.683594 153.0625 302.609375 150.550781 303.082031 C 150.140625 304.242188 149.324219 306.828125 147.21875 306.691406 C 144.292969 306.488281 145.105469 299.75 145.105469 296.007812 C 145.105469 291.515625 144.902344 287.433594 144.628906 283.621094 C 144.160156 276.679688 144.496094 270.960938 144.160156 264.628906 C 143.949219 260.6875 142.523438 254.492188 147.148438 254.492188 C 147.964844 254.492188 148.710938 254.898438 149.1875 255.175781 " fill-opacity="1" fill-rule="evenodd"/><path fill="#000000" d="M 207.324219 264.902344 C 208.820312 264.699219 214.53125 264.96875 214.53125 266.742188 C 214.53125 267.96875 212.695312 268.035156 211.40625 268.171875 C 209.230469 268.511719 204.875 269.398438 204.945312 266.671875 C 205.015625 265.378906 206.101562 265.039062 207.324219 264.902344 " fill-opacity="1" fill-rule="evenodd"/><path fill="#000000" d="M 89.625 270.351562 C 89.691406 270.351562 89.691406 270.351562 89.757812 270.351562 C 90.371094 271.03125 89.554688 271.777344 89.285156 272.320312 C 85.613281 279.605469 83.503906 289.066406 81.871094 298.457031 C 81.667969 300.023438 81.394531 301.792969 80.851562 303.5625 C 80.582031 304.648438 79.625 307.167969 78.402344 307.101562 C 77.042969 307.03125 77.453125 303.632812 77.585938 302.402344 C 78.265625 297.5 79.625 292.875 80.78125 288.382812 C 81.53125 285.527344 82.484375 282.328125 83.503906 279.535156 C 85 275.523438 86.15625 272.253906 89.625 270.351562 " fill-opacity="1" fill-rule="evenodd"/><g clip-path="url(#6ae72cc2c1)"><path fill="#000000" d="M 90.78125 291.785156 C 92.816406 283.351562 95.46875 276.8125 97.304688 268.308594 C 97.578125 267.082031 97.917969 265.792969 98.394531 264.359375 C 98.871094 263.070312 99.144531 261.640625 100.433594 261.5 C 102.609375 261.367188 102.609375 264.089844 102.542969 266.605469 C 102.335938 273.410156 101.179688 279.808594 100.363281 285.800781 C 99.484375 292.125 98.664062 298.113281 97.710938 304.648438 C 97.441406 306.554688 97.304688 309.6875 95.8125 309.824219 C 93.433594 309.957031 93.292969 305.53125 93.433594 302.949219 C 93.839844 294.03125 95.335938 286.546875 96.355469 278.449219 C 93.839844 285.660156 92.207031 292.535156 90.710938 300.839844 C 90.300781 302.882812 90.03125 307.507812 88.195312 307.574219 C 86.15625 307.714844 86.15625 303.832031 86.019531 301.519531 C 85.675781 293.078125 86.765625 285.933594 88.195312 279.195312 C 89.484375 272.800781 91.320312 266.058594 93.769531 260.347656 C 94.382812 258.78125 95.742188 255.3125 97.101562 255.105469 C 98.121094 254.898438 98.664062 255.515625 98.734375 255.855469 C 99.007812 256.738281 98.328125 257.28125 98.054688 257.894531 C 97.578125 259.050781 97.238281 260.550781 96.898438 261.839844 C 94.246094 271.03125 92.003906 281.375 90.78125 291.785156 " fill-opacity="1" fill-rule="evenodd"/></g><g fill="#000000" fill-opacity="1"><g transform="translate(51.152346, 89.625053)"><g><path d="M 22.75 -38.8125 L 23.984375 -38.984375 C 24.535156 -38.984375 24.835938 -38.535156 24.890625 -37.640625 C 24.953125 -36.753906 25.03125 -36.03125 25.125 -35.46875 C 25.226562 -34.90625 25.328125 -34.394531 25.421875 -33.9375 C 25.515625 -33.488281 25.597656 -33.109375 25.671875 -32.796875 C 25.742188 -32.484375 25.78125 -32.222656 25.78125 -32.015625 C 25.78125 -31.816406 25.664062 -31.625 25.4375 -31.4375 C 25.207031 -31.25 24.96875 -31.15625 24.71875 -31.15625 C 24.269531 -31.15625 23.832031 -31.632812 23.40625 -32.59375 C 22.582031 -34.414062 21.898438 -35.585938 21.359375 -36.109375 C 20.085938 -37.242188 18.21875 -37.8125 15.75 -37.8125 C 12.320312 -37.8125 10.019531 -36.785156 8.84375 -34.734375 C 8.46875 -34.066406 8.28125 -33.253906 8.28125 -32.296875 C 8.28125 -31.347656 8.507812 -30.453125 8.96875 -29.609375 C 9.4375 -28.773438 10.140625 -27.929688 11.078125 -27.078125 C 12.023438 -26.222656 13.234375 -25.304688 14.703125 -24.328125 C 16.171875 -23.359375 17.742188 -22.296875 19.421875 -21.140625 C 21.097656 -19.992188 22.40625 -18.957031 23.34375 -18.03125 C 24.28125 -17.101562 25.039062 -16.179688 25.625 -15.265625 C 26.738281 -13.523438 27.296875 -11.832031 27.296875 -10.1875 C 27.296875 -8.550781 27.0625 -7.09375 26.59375 -5.8125 C 26.125 -4.53125 25.363281 -3.410156 24.3125 -2.453125 C 22.03125 -0.328125 18.648438 0.734375 14.171875 0.734375 C 11.910156 0.734375 9.410156 0.234375 6.671875 -0.765625 C 6.046875 -0.972656 5.65625 -1.21875 5.5 -1.5 C 5.332031 -1.820312 5.175781 -2.441406 5.03125 -3.359375 C 4.894531 -4.285156 4.734375 -5.117188 4.546875 -5.859375 C 4.367188 -6.597656 4.203125 -7.257812 4.046875 -7.84375 L 3.625 -9.375 C 3.507812 -9.820312 3.453125 -10.191406 3.453125 -10.484375 C 3.453125 -11.191406 3.71875 -11.546875 4.25 -11.546875 C 4.945312 -11.546875 5.453125 -11.003906 5.765625 -9.921875 C 6.316406 -8.015625 6.804688 -6.773438 7.234375 -6.203125 C 8.890625 -4.015625 10.8125 -2.59375 13 -1.9375 C 13.644531 -1.738281 14.507812 -1.640625 15.59375 -1.640625 C 16.675781 -1.640625 17.738281 -1.800781 18.78125 -2.125 C 19.832031 -2.445312 20.695312 -2.878906 21.375 -3.421875 C 22.664062 -4.484375 23.3125 -5.769531 23.3125 -7.28125 C 23.3125 -8.789062 22.828125 -10.15625 21.859375 -11.375 C 20.898438 -12.59375 19.738281 -13.65625 18.375 -14.5625 C 17.019531 -15.476562 16.003906 -16.148438 15.328125 -16.578125 C 14.660156 -17.003906 14.03125 -17.414062 13.4375 -17.8125 C 8.5 -21.101562 5.582031 -24.382812 4.6875 -27.65625 C 4.445312 -28.507812 4.328125 -29.492188 4.328125 -30.609375 C 4.328125 -31.722656 4.597656 -32.863281 5.140625 -34.03125 C 5.691406 -35.207031 6.476562 -36.234375 7.5 -37.109375 C 9.738281 -39.023438 12.640625 -39.984375 16.203125 -39.984375 C 17.816406 -39.984375 19.113281 -39.816406 20.09375 -39.484375 C 21.457031 -39.035156 22.34375 -38.8125 22.75 -38.8125 Z M 22.75 -38.8125 "/></g></g></g><g fill="#000000" fill-opacity="1"><g transform="translate(80.991297, 89.625053)"><g><path d="M 29.0625 -3.921875 C 29.625 -3.921875 29.90625 -3.660156 29.90625 -3.140625 C 29.90625 -2.628906 29.335938 -2.140625 28.203125 -1.671875 C 27.066406 -1.203125 26.273438 -0.773438 25.828125 -0.390625 C 25.378906 -0.015625 25.046875 0.265625 24.828125 0.453125 C 24.617188 0.640625 24.367188 0.734375 24.078125 0.734375 C 23.492188 0.734375 23.003906 0.488281 22.609375 0 C 22.222656 -0.488281 21.695312 -1.535156 21.03125 -3.140625 C 19.914062 -1.867188 18.5625 -0.90625 16.96875 -0.25 C 15.382812 0.40625 13.8125 0.734375 12.25 0.734375 C 9.289062 0.734375 7 -0.015625 5.375 -1.515625 C 3.757812 -3.023438 2.953125 -5.085938 2.953125 -7.703125 C 2.953125 -10.316406 4.175781 -12.4375 6.625 -14.0625 C 9.082031 -15.695312 12.210938 -16.515625 16.015625 -16.515625 C 17.148438 -16.515625 18.644531 -16.320312 20.5 -15.9375 L 20.5 -18.21875 C 20.5 -23.238281 18.378906 -25.75 14.140625 -25.75 C 11.898438 -25.75 10.253906 -24.710938 9.203125 -22.640625 C 8.273438 -20.785156 7.375 -19.859375 6.5 -19.859375 C 5.851562 -19.859375 5.289062 -20.039062 4.8125 -20.40625 C 4.332031 -20.78125 4.09375 -21.25 4.09375 -21.8125 C 4.09375 -22.382812 4.382812 -23.015625 4.96875 -23.703125 C 5.5625 -24.398438 6.347656 -25.03125 7.328125 -25.59375 C 9.628906 -26.945312 12.15625 -27.625 14.90625 -27.625 C 19.789062 -27.625 22.945312 -26.03125 24.375 -22.84375 C 24.894531 -21.707031 25.15625 -20.320312 25.15625 -18.6875 L 25.15625 -7 C 25.15625 -5.5 25.300781 -4.53125 25.59375 -4.09375 C 25.882812 -3.664062 26.296875 -3.453125 26.828125 -3.453125 C 27.359375 -3.453125 27.785156 -3.53125 28.109375 -3.6875 C 28.441406 -3.84375 28.757812 -3.921875 29.0625 -3.921875 Z M 20.5 -13.203125 C 19.09375 -14.003906 17.316406 -14.40625 15.171875 -14.40625 C 13.023438 -14.40625 11.300781 -13.867188 10 -12.796875 C 8.695312 -11.722656 8.046875 -10.28125 8.046875 -8.46875 C 8.046875 -6.664062 8.546875 -5.164062 9.546875 -3.96875 C 10.546875 -2.769531 11.828125 -2.171875 13.390625 -2.171875 C 16.722656 -2.171875 19.125 -3.265625 20.59375 -5.453125 C 20.53125 -5.992188 20.5 -6.597656 20.5 -7.265625 Z M 20.5 -13.203125 "/></g></g></g><g fill="#000000" fill-opacity="1"><g transform="translate(111.240204, 89.625053)"><g><path d="M 29.234375 -27.390625 C 30.035156 -27.390625 30.4375 -27.144531 30.4375 -26.65625 C 30.4375 -26.238281 30.0625 -25.898438 29.3125 -25.640625 C 28.570312 -25.378906 28.019531 -25.132812 27.65625 -24.90625 C 27.300781 -24.6875 26.945312 -24.359375 26.59375 -23.921875 C 26.007812 -23.179688 25.238281 -21.738281 24.28125 -19.59375 L 15.40625 -0.109375 C 15.132812 0.453125 14.867188 0.734375 14.609375 0.734375 C 14.222656 0.734375 13.910156 0.453125 13.671875 -0.109375 L 3.84375 -21.875 C 3.25 -23.125 2.804688 -23.945312 2.515625 -24.34375 C 2.003906 -24.945312 1.320312 -25.351562 0.46875 -25.5625 C -0.382812 -25.78125 -0.8125 -26.15625 -0.8125 -26.6875 C -0.8125 -26.863281 -0.707031 -27.023438 -0.5 -27.171875 C -0.300781 -27.316406 -0.0078125 -27.390625 0.375 -27.390625 L 4.921875 -27.0625 C 6.148438 -27.0625 7.078125 -27.101562 7.703125 -27.1875 C 8.796875 -27.320312 9.691406 -27.390625 10.390625 -27.390625 C 11.796875 -27.390625 12.5 -27.101562 12.5 -26.53125 C 12.5 -25.945312 11.679688 -25.617188 10.046875 -25.546875 C 8.835938 -25.484375 8.234375 -25.082031 8.234375 -24.34375 C 8.234375 -23.695312 8.445312 -22.925781 8.875 -22.03125 L 15.84375 -6.671875 L 21.90625 -20.734375 C 22.644531 -22.472656 23.015625 -23.613281 23.015625 -24.15625 C 23.015625 -24.707031 22.878906 -25.0625 22.609375 -25.21875 C 22.335938 -25.375 21.816406 -25.484375 21.046875 -25.546875 C 20.273438 -25.617188 19.71875 -25.722656 19.375 -25.859375 C 19.03125 -25.992188 18.859375 -26.21875 18.859375 -26.53125 C 18.859375 -27.101562 19.523438 -27.390625 20.859375 -27.390625 L 25.828125 -27.09375 Z M 29.234375 -27.390625 "/></g></g></g><g fill="#000000" fill-opacity="1"><g transform="translate(140.434939, 89.625053)"><g><path d="M 5.921875 -3.296875 C 4.785156 -4.554688 3.910156 -6.046875 3.296875 -7.765625 C 2.679688 -9.484375 2.375 -11.390625 2.375 -13.484375 C 2.375 -15.585938 2.734375 -17.515625 3.453125 -19.265625 C 4.179688 -21.023438 5.175781 -22.53125 6.4375 -23.78125 C 9.070312 -26.375 12.328125 -27.671875 16.203125 -27.671875 C 19.398438 -27.671875 21.984375 -26.617188 23.953125 -24.515625 C 25.828125 -22.484375 26.765625 -19.972656 26.765625 -16.984375 C 26.765625 -16.003906 26.632812 -15.332031 26.375 -14.96875 C 26.113281 -14.613281 25.785156 -14.398438 25.390625 -14.328125 C 25.003906 -14.265625 24.46875 -14.207031 23.78125 -14.15625 C 23.09375 -14.113281 22.257812 -14.0625 21.28125 -14 C 20.3125 -13.9375 19.222656 -13.875 18.015625 -13.8125 C 16.816406 -13.757812 15.597656 -13.695312 14.359375 -13.625 C 11.484375 -13.445312 9.175781 -13.269531 7.4375 -13.09375 C 7.863281 -7.84375 9.875 -4.4375 13.46875 -2.875 C 14.644531 -2.363281 15.894531 -2.109375 17.21875 -2.109375 C 20.03125 -2.109375 22.257812 -2.925781 23.90625 -4.5625 C 24.601562 -5.269531 25.140625 -5.625 25.515625 -5.625 C 26.210938 -5.625 26.5625 -5.203125 26.5625 -4.359375 C 26.5625 -3.929688 26.269531 -3.414062 25.6875 -2.8125 C 25.101562 -2.207031 24.265625 -1.582031 23.171875 -0.9375 C 21.234375 0.175781 18.972656 0.734375 16.390625 0.734375 C 13.816406 0.734375 11.710938 0.378906 10.078125 -0.328125 C 8.453125 -1.046875 7.066406 -2.035156 5.921875 -3.296875 Z M 7.375 -15.265625 C 16.539062 -15.734375 21.363281 -16.226562 21.84375 -16.75 C 22.019531 -16.945312 22.109375 -17.523438 22.109375 -18.484375 C 22.109375 -19.441406 21.921875 -20.375 21.546875 -21.28125 C 21.179688 -22.1875 20.6875 -22.960938 20.0625 -23.609375 C 18.769531 -24.910156 17.171875 -25.5625 15.265625 -25.5625 C 13.097656 -25.5625 11.269531 -24.65625 9.78125 -22.84375 C 8.21875 -20.945312 7.414062 -18.421875 7.375 -15.265625 Z M 7.375 -15.265625 "/></g></g></g><g fill="#000000" fill-opacity="1"><g transform="translate(169.278283, 89.625053)"><g/></g></g><g fill="#000000" fill-opacity="1"><g transform="translate(184.651645, 89.625053)"><g><path d="M 2.546875 10.28125 L 5.015625 10.484375 C 5.265625 10.484375 5.46875 10.425781 5.625 10.3125 C 5.78125 10.195312 5.90625 9.921875 6 9.484375 C 6.175781 8.703125 6.265625 6.984375 6.265625 4.328125 L 6.265625 -18.078125 C 6.265625 -19.910156 6.117188 -21.101562 5.828125 -21.65625 C 5.535156 -22.21875 5.222656 -22.59375 4.890625 -22.78125 C 4.554688 -22.976562 4.023438 -23.132812 3.296875 -23.25 C 2.566406 -23.375 2.203125 -23.675781 2.203125 -24.15625 C 2.203125 -24.613281 2.695312 -24.9375 3.6875 -25.125 C 6.03125 -25.613281 7.640625 -26.113281 8.515625 -26.625 C 9.710938 -27.289062 10.515625 -27.625 10.921875 -27.625 C 11.367188 -27.625 11.59375 -27.398438 11.59375 -26.953125 C 11.59375 -26.734375 11.546875 -26.503906 11.453125 -26.265625 C 11.367188 -26.035156 11.28125 -25.765625 11.1875 -25.453125 C 11.050781 -24.941406 10.941406 -23.972656 10.859375 -22.546875 C 13.242188 -25.929688 16.253906 -27.625 19.890625 -27.625 C 23.578125 -27.625 26.515625 -26.304688 28.703125 -23.671875 C 30.804688 -21.109375 31.859375 -17.785156 31.859375 -13.703125 C 31.859375 -9.703125 30.550781 -6.304688 27.9375 -3.515625 C 25.300781 -0.679688 22.039062 0.734375 18.15625 0.734375 C 15.34375 0.734375 12.894531 -0.0078125 10.8125 -1.5 L 10.8125 4.328125 C 10.8125 8.023438 10.96875 10.019531 11.28125 10.3125 C 11.414062 10.425781 11.585938 10.484375 11.796875 10.484375 L 15.734375 10.15625 C 16.117188 10.15625 16.425781 10.273438 16.65625 10.515625 C 16.894531 10.765625 17.015625 11.03125 17.015625 11.3125 C 17.015625 12.144531 16.300781 12.5625 14.875 12.5625 L 8.703125 12.125 C 7.703125 12.125 6.757812 12.195312 5.875 12.34375 C 4.988281 12.488281 4.171875 12.5625 3.421875 12.5625 C 2.679688 12.5625 2.171875 12.429688 1.890625 12.171875 C 1.609375 11.910156 1.46875 11.628906 1.46875 11.328125 C 1.46875 11.035156 1.5625 10.785156 1.75 10.578125 C 1.945312 10.378906 2.210938 10.28125 2.546875 10.28125 Z M 10.8125 -6.46875 C 11.957031 -4.09375 13.859375 -2.53125 16.515625 -1.78125 C 17.359375 -1.550781 18.257812 -1.4375 19.21875 -1.4375 C 20.175781 -1.4375 21.132812 -1.644531 22.09375 -2.0625 C 23.0625 -2.476562 23.90625 -3.128906 24.625 -4.015625 C 26.207031 -5.941406 27 -8.632812 27 -12.09375 C 27 -15.9375 26.171875 -19.015625 24.515625 -21.328125 C 22.953125 -23.515625 20.988281 -24.609375 18.625 -24.609375 C 16.207031 -24.609375 14.082031 -23.550781 12.25 -21.4375 C 11.675781 -20.769531 11.195312 -20.03125 10.8125 -19.21875 Z M 10.8125 -6.46875 "/></g></g></g><g fill="#000000" fill-opacity="1"><g transform="translate(218.882982, 89.625053)"><g><path d="M 11.984375 -36.359375 C 11.984375 -35.535156 11.703125 -34.832031 11.140625 -34.25 C 10.585938 -33.675781 9.835938 -33.390625 8.890625 -33.390625 C 7.941406 -33.390625 7.207031 -33.664062 6.6875 -34.21875 C 6.175781 -34.78125 5.921875 -35.382812 5.921875 -36.03125 C 5.921875 -36.6875 6.003906 -37.191406 6.171875 -37.546875 C 6.347656 -37.898438 6.578125 -38.203125 6.859375 -38.453125 C 7.460938 -38.984375 8.195312 -39.25 9.0625 -39.25 C 9.9375 -39.25 10.640625 -38.972656 11.171875 -38.421875 C 11.710938 -37.878906 11.984375 -37.191406 11.984375 -36.359375 Z M 3.921875 0.4375 C 2.617188 0.4375 1.96875 0.078125 1.96875 -0.640625 C 1.96875 -1.210938 2.328125 -1.5 3.046875 -1.5 L 4.515625 -1.34375 C 4.960938 -1.34375 5.332031 -1.425781 5.625 -1.59375 C 5.914062 -1.757812 6.148438 -2.117188 6.328125 -2.671875 C 6.640625 -3.640625 6.796875 -5.84375 6.796875 -9.28125 L 6.796875 -18.09375 C 6.796875 -20.03125 6.660156 -21.253906 6.390625 -21.765625 C 6.128906 -22.285156 5.832031 -22.640625 5.5 -22.828125 C 5.175781 -23.015625 4.625 -23.160156 3.84375 -23.265625 C 3.070312 -23.378906 2.6875 -23.6875 2.6875 -24.1875 C 2.6875 -24.632812 3.195312 -24.96875 4.21875 -25.1875 C 6.539062 -25.65625 8.140625 -26.132812 9.015625 -26.625 C 10.234375 -27.3125 11.066406 -27.65625 11.515625 -27.65625 C 11.960938 -27.65625 12.1875 -27.425781 12.1875 -26.96875 C 12.1875 -26.757812 12.144531 -26.535156 12.0625 -26.296875 C 11.613281 -24.953125 11.390625 -22.296875 11.390625 -18.328125 L 11.390625 -9.28125 C 11.390625 -5.84375 11.507812 -3.742188 11.75 -2.984375 C 12 -2.222656 12.269531 -1.757812 12.5625 -1.59375 C 12.851562 -1.425781 13.222656 -1.34375 13.671875 -1.34375 L 15.140625 -1.5 C 15.859375 -1.5 16.21875 -1.210938 16.21875 -0.640625 C 16.21875 0.078125 15.566406 0.4375 14.265625 0.4375 C 13.523438 0.4375 12.726562 0.363281 11.875 0.21875 C 11.03125 0.0703125 10.117188 0 9.140625 0 C 8.160156 0 7.226562 0.0703125 6.34375 0.21875 C 5.46875 0.363281 4.660156 0.4375 3.921875 0.4375 Z M 3.921875 0.4375 "/></g></g></g><g fill="#000000" fill-opacity="1"><g transform="translate(236.013298, 89.625053)"><g><path d="M 3.34375 0 C 2.675781 0 2.34375 -0.191406 2.34375 -0.578125 C 2.34375 -0.816406 2.476562 -1.128906 2.75 -1.515625 L 19.21875 -24.84375 L 15.546875 -24.84375 C 11.609375 -24.84375 8.972656 -24.488281 7.640625 -23.78125 C 6.679688 -23.238281 6.007812 -22.445312 5.625 -21.40625 C 5.226562 -20.394531 4.773438 -19.890625 4.265625 -19.890625 C 3.765625 -19.890625 3.515625 -20.171875 3.515625 -20.734375 C 3.515625 -20.816406 3.566406 -21.066406 3.671875 -21.484375 C 3.785156 -21.898438 3.910156 -22.398438 4.046875 -22.984375 C 4.378906 -24.566406 4.546875 -25.753906 4.546875 -26.546875 C 4.546875 -27.335938 4.757812 -27.734375 5.1875 -27.734375 C 5.394531 -27.734375 5.617188 -27.6875 5.859375 -27.59375 C 6.910156 -27.195312 8.238281 -26.988281 9.84375 -26.96875 C 11.457031 -26.957031 12.785156 -26.953125 13.828125 -26.953125 L 24.75 -26.953125 C 25.414062 -26.953125 25.75 -26.722656 25.75 -26.265625 C 25.75 -26.035156 25.582031 -25.6875 25.25 -25.21875 L 9.203125 -2.109375 L 13.90625 -2.109375 C 18.613281 -2.109375 21.546875 -2.535156 22.703125 -3.390625 C 23.421875 -3.921875 24.003906 -4.640625 24.453125 -5.546875 C 24.898438 -6.453125 25.210938 -7 25.390625 -7.1875 C 25.566406 -7.375 25.789062 -7.46875 26.0625 -7.46875 C 26.457031 -7.46875 26.65625 -7.222656 26.65625 -6.734375 C 26.65625 -6.285156 26.507812 -5.632812 26.21875 -4.78125 C 25.9375 -3.9375 25.769531 -3.234375 25.71875 -2.671875 C 25.675781 -2.117188 25.632812 -1.617188 25.59375 -1.171875 C 25.5 -0.0976562 25.234375 0.4375 24.796875 0.4375 C 24.367188 0.4375 23.929688 0.410156 23.484375 0.359375 C 23.035156 0.316406 22.519531 0.273438 21.9375 0.234375 C 20.175781 0.078125 18.546875 0 17.046875 0 Z M 3.34375 0 "/></g></g></g><g fill="#000000" fill-opacity="1"><g transform="translate(264.798077, 89.625053)"><g><path d="M 3.34375 0 C 2.675781 0 2.34375 -0.191406 2.34375 -0.578125 C 2.34375 -0.816406 2.476562 -1.128906 2.75 -1.515625 L 19.21875 -24.84375 L 15.546875 -24.84375 C 11.609375 -24.84375 8.972656 -24.488281 7.640625 -23.78125 C 6.679688 -23.238281 6.007812 -22.445312 5.625 -21.40625 C 5.226562 -20.394531 4.773438 -19.890625 4.265625 -19.890625 C 3.765625 -19.890625 3.515625 -20.171875 3.515625 -20.734375 C 3.515625 -20.816406 3.566406 -21.066406 3.671875 -21.484375 C 3.785156 -21.898438 3.910156 -22.398438 4.046875 -22.984375 C 4.378906 -24.566406 4.546875 -25.753906 4.546875 -26.546875 C 4.546875 -27.335938 4.757812 -27.734375 5.1875 -27.734375 C 5.394531 -27.734375 5.617188 -27.6875 5.859375 -27.59375 C 6.910156 -27.195312 8.238281 -26.988281 9.84375 -26.96875 C 11.457031 -26.957031 12.785156 -26.953125 13.828125 -26.953125 L 24.75 -26.953125 C 25.414062 -26.953125 25.75 -26.722656 25.75 -26.265625 C 25.75 -26.035156 25.582031 -25.6875 25.25 -25.21875 L 9.203125 -2.109375 L 13.90625 -2.109375 C 18.613281 -2.109375 21.546875 -2.535156 22.703125 -3.390625 C 23.421875 -3.921875 24.003906 -4.640625 24.453125 -5.546875 C 24.898438 -6.453125 25.210938 -7 25.390625 -7.1875 C 25.566406 -7.375 25.789062 -7.46875 26.0625 -7.46875 C 26.457031 -7.46875 26.65625 -7.222656 26.65625 -6.734375 C 26.65625 -6.285156 26.507812 -5.632812 26.21875 -4.78125 C 25.9375 -3.9375 25.769531 -3.234375 25.71875 -2.671875 C 25.675781 -2.117188 25.632812 -1.617188 25.59375 -1.171875 C 25.5 -0.0976562 25.234375 0.4375 24.796875 0.4375 C 24.367188 0.4375 23.929688 0.410156 23.484375 0.359375 C 23.035156 0.316406 22.519531 0.273438 21.9375 0.234375 C 20.175781 0.078125 18.546875 0 17.046875 0 Z M 3.34375 0 "/></g></g></g><g fill="#000000" fill-opacity="1"><g transform="translate(293.582855, 89.625053)"><g><path d="M 29.0625 -3.921875 C 29.625 -3.921875 29.90625 -3.660156 29.90625 -3.140625 C 29.90625 -2.628906 29.335938 -2.140625 28.203125 -1.671875 C 27.066406 -1.203125 26.273438 -0.773438 25.828125 -0.390625 C 25.378906 -0.015625 25.046875 0.265625 24.828125 0.453125 C 24.617188 0.640625 24.367188 0.734375 24.078125 0.734375 C 23.492188 0.734375 23.003906 0.488281 22.609375 0 C 22.222656 -0.488281 21.695312 -1.535156 21.03125 -3.140625 C 19.914062 -1.867188 18.5625 -0.90625 16.96875 -0.25 C 15.382812 0.40625 13.8125 0.734375 12.25 0.734375 C 9.289062 0.734375 7 -0.015625 5.375 -1.515625 C 3.757812 -3.023438 2.953125 -5.085938 2.953125 -7.703125 C 2.953125 -10.316406 4.175781 -12.4375 6.625 -14.0625 C 9.082031 -15.695312 12.210938 -16.515625 16.015625 -16.515625 C 17.148438 -16.515625 18.644531 -16.320312 20.5 -15.9375 L 20.5 -18.21875 C 20.5 -23.238281 18.378906 -25.75 14.140625 -25.75 C 11.898438 -25.75 10.253906 -24.710938 9.203125 -22.640625 C 8.273438 -20.785156 7.375 -19.859375 6.5 -19.859375 C 5.851562 -19.859375 5.289062 -20.039062 4.8125 -20.40625 C 4.332031 -20.78125 4.09375 -21.25 4.09375 -21.8125 C 4.09375 -22.382812 4.382812 -23.015625 4.96875 -23.703125 C 5.5625 -24.398438 6.347656 -25.03125 7.328125 -25.59375 C 9.628906 -26.945312 12.15625 -27.625 14.90625 -27.625 C 19.789062 -27.625 22.945312 -26.03125 24.375 -22.84375 C 24.894531 -21.707031 25.15625 -20.320312 25.15625 -18.6875 L 25.15625 -7 C 25.15625 -5.5 25.300781 -4.53125 25.59375 -4.09375 C 25.882812 -3.664062 26.296875 -3.453125 26.828125 -3.453125 C 27.359375 -3.453125 27.785156 -3.53125 28.109375 -3.6875 C 28.441406 -3.84375 28.757812 -3.921875 29.0625 -3.921875 Z M 20.5 -13.203125 C 19.09375 -14.003906 17.316406 -14.40625 15.171875 -14.40625 C 13.023438 -14.40625 11.300781 -13.867188 10 -12.796875 C 8.695312 -11.722656 8.046875 -10.28125 8.046875 -8.46875 C 8.046875 -6.664062 8.546875 -5.164062 9.546875 -3.96875 C 10.546875 -2.769531 11.828125 -2.171875 13.390625 -2.171875 C 16.722656 -2.171875 19.125 -3.265625 20.59375 -5.453125 C 20.53125 -5.992188 20.5 -6.597656 20.5 -7.265625 Z M 20.5 -13.203125 "/></g></g></g></svg>